<ttFont>
<head>
    <!-- Most of this table will be recalculated by the compiler -->
    <tableVersion value="1.0"/>
    <fontRevision value="3.01"/>
    <checkSumAdjustment value="0xce396869"/>
    <magicNumber value="0x5f0f3cf5"/>
    <flags value="00000000 00000011"/>
    <unitsPerEm value="1000"/>
    <created value="Mon Aug 14 17:49:47 2017"/>
    <modified value="Mon Aug 14 17:49:47 2017"/>
    <xMin value="-539"/>
    <yMin value="-582"/>
    <xMax value="2603"/>
    <yMax value="1077"/>
    <macStyle value="00000000 00000010"/>
    <lowestRecPPEM value="3"/>
    <fontDirectionHint value="2"/>
    <indexToLocFormat value="0"/>
    <glyphDataFormat value="0"/>
  </head>
          <CharString index="0">
            -100 callsubr
            473 -105 callgsubr
            return
          </CharString>
          <CharString index="1">
            -2 253 callsubr
            -102 -78 177 callgsubr
            -141 -26 69 -111 161 -71 callsubr
            rlineto
            95 17 51 69 83 hhcurveto
            return
          </CharString>
          <CharString index="2">
            hlineto
            -16 -88 rlineto
            351 -103 callsubr
            return
          </CharString>
          <CharString index="3">
            194 callgsubr
            72 17 51 68 90 hhcurveto
            76 46 -57 -83 -14 hvcurveto
            -90 -16 -66 -51 -72 hhcurveto
            -13 -14 1 3 -10 hvcurveto
            -14 -83 rlineto
            -5 19 21 -2 22 hhcurveto
            120 101 79 146 27 hvcurveto
            134 24 -72 98 -122 hhcurveto
            -80 -60 -39 -53 -37 hvcurveto
            34 193 rlineto
            460 hlineto
            return
          </CharString>
          <CharString index="4">
            -65 callsubr
            -88 hlineto
            -35 -198 -102 callgsubr
            return
          </CharString>
          <CharString index="5">
            169 callgsubr
            -88 -15 -63 -54 -75 hhcurveto
            -13 -15 2 3 -12 hvcurveto
            -14 -82 rlineto
            -5 18 24 -3 23 hhcurveto
            120 104 85 147 26 hvcurveto
            131 23 -68 94 -122 hhcurveto
            -85 -63 -40 -54 -39 hvcurveto
            35 195 rlineto
            return
          </CharString>
          <CharString index="6">
            467 rmoveto
            79 69 -49 -113 -25 hvcurveto
            -312 hlineto
            112 24 81 50 84 hhcurveto
            213 -275 rmoveto
            -122 hlineto
            -64 -24 -63 -42 -77 hhcurveto
            -79 -65 46 121 17 hvcurveto
            424 hlineto
            6 16 3 12 4 21 rrcurveto
            143 26 -80 113 -167 hhcurveto
            -159 -132 -104 -173 -31 hvcurveto
            -180 -32 95 -108 159 hhcurveto
            146 109 84 115 42 hvcurveto
            return
          </CharString>
          <CharString index="7">
            hlineto
            -73 callsubr
            return
          </CharString>
          <CharString index="8">
            rmoveto
            -96 callgsubr
            return
          </CharString>
          <CharString index="9">
            291 callsubr
            74 239 callsubr
            184 hlineto
            -49 -280 rlineto
            0 306 callgsubr
            return
          </CharString>
          <CharString index="10">
            -56 callsubr
            -29 -163 163 callsubr
            return
          </CharString>
          <CharString index="11">
            -20 callsubr
            10 51 -37 callgsubr
            -74 -14 -40 -45 -61 hhcurveto
            return
          </CharString>
          <CharString index="12">
            373 rmoveto
            -223 -40 116 -158 219 hhcurveto
            203 156 142 309 callsubr
            223 39 -119 157 -215 hhcurveto
            -202 -157 -141 -201 -35 hvcurveto
            577 -24 rmoveto
            -154 -27 -113 -96 -132 hhcurveto
            -140 -80 100 160 27 hvcurveto
            154 28 112 96 133 hhcurveto
            138 82 -100 -160 -28 hvcurveto
            return
          </CharString>
          <CharString index="13">
            -100 callsubr
            358 hlineto
            -35 -195 rlineto
            -85 hlineto
            -114 -101 -63 -120 -20 hvcurveto
            -77 callsubr
            return
          </CharString>
          <CharString index="14">
            342 callgsubr
            -39 64 90 16 hvcurveto
            82 15 return
          </CharString>
          <CharString index="15">
            rmoveto
            -88 -54 58 93 16 hvcurveto
            91 16 77 58 85 hhcurveto
            101 35 -71 -71 -9 hvcurveto
            -2 -15 rlineto
            -68 -16 -60 -75 -101 hhcurveto
            return
          </CharString>
          <CharString index="16">
            285 rmoveto
            -182 -33 105 -110 162 hhcurveto
            157 138 102 171 30 hvcurveto
            183 33 -104 109 -161 hhcurveto
            -158 -139 -102 -171 -30 hvcurveto
            443 -9 rmoveto
            -127 -23 -89 -56 -84 hhcurveto
            -84 -70 56 127 23 hvcurveto
            126 23 89 57 84 hhcurveto
            84 69 -57 -126 -22 hvcurveto
            return
          </CharString>
          <CharString index="17">
            -106 callgsubr
            56 return
          </CharString>
          <CharString index="18">
            rlineto
            -83 callsubr
            return
          </CharString>
          <CharString index="19">
            57 callsubr
            -101 hlineto
            -71 -11 57 callgsubr
            return
          </CharString>
          <CharString index="20">
            rmoveto
            60 hlineto
            33 11 18 14 23 41 17 -47 59 hhcurveto
            56 47 37 79 26 hvcurveto
            -61 hlineto
            -31 -10 -20 -16 -23 -43 -16 48 -57 hhcurveto
            -57 -44 -36 -81 -27 hvcurveto
            return
          </CharString>
          <CharString index="21">
            hhcurveto
            83 62 39 54 39 hvcurveto
            -32 -181 rlineto
            return
          </CharString>
          <CharString index="22">
            287 rmoveto
            -201 -36 98 -93 156 hhcurveto
            156 134 93 201 36 hvcurveto
            73 96 callsubr
            -74 -419 rlineto
            -129 -23 -71 -57 -96 hhcurveto
            -97 -50 57 129 23 hvcurveto
            73 96 callsubr
            return
          </CharString>
          <CharString index="23">
            hhcurveto
            164 117 105 156 27 hvcurveto
            195 callsubr
          </CharString>
          <CharString index="24">
            105 -69 callgsubr
            return
          </CharString>
          <CharString index="25">
            hhcurveto
            107 99 69 117 20 hvcurveto
            288 callgsubr
            174 hlineto
            -73 -414 -12 callgsubr
          </CharString>
          <CharString index="26">
            -92 callsubr
            476 570 rmoveto
            return
          </CharString>
          <CharString index="27">
            208 callsubr
            55 46 hvcurveto
            -34 -34 callgsubr
            return
          </CharString>
          <CharString index="28">
            rmoveto
            2 10 rlineto
            -59 hlineto
            -48 -9 -33 -29 -64 hhcurveto
            -63 -24 29 48 9 hvcurveto
            -59 hlineto
            -2 -10 rlineto
            -90 -16 46 -61 95 hhcurveto
            94 67 61 90 16 hvcurveto
            return
          </CharString>
          <CharString index="29">
            34 callgsubr
            rlineto
            -146 -27 60 -100 137 1 callgsubr
            return
          </CharString>
          <CharString index="30">
            227 callgsubr
            -62 callgsubr
            return
          </CharString>
          <CharString index="31">
            -73 callgsubr
            -103 46 callsubr
            -9 -71 -42 -16 -90 rrcurveto
            -121 -21 99 -60 135 hhcurveto
            return
          </CharString>
          <CharString index="32">
            85 callgsubr
            -77 -74 -105 -19 hvcurveto
            4 callsubr
            11 38 35 48 hhcurveto
            57 16 -45 -68 -12 hvcurveto
            -16 -89 rlineto
            -84 hlineto
            -115 -99 -63 -120 -22 hvcurveto
            11 callsubr
          </CharString>
          <CharString index="33">
            rmoveto
            -78 callgsubr
            383 hlineto
            -32 -184 -20 40 33 callgsubr
            19 -63 41 -38 rrcurveto
            -44 -31 -52 -39 -74 hhcurveto
            return
          </CharString>
          <CharString index="34">
            -15 -88 rlineto
            return
          </CharString>
          <CharString index="35">
            -48 callsubr
            110 96 248 callsubr
            return
          </CharString>
          <CharString index="36">
            hhcurveto
            10 8 130 callgsubr
            -93 callsubr
            50 60 81 hhcurveto
            82 24 143 callgsubr
            return
          </CharString>
          <CharString index="37">
            hlineto
            -16 -66 callgsubr
            return
          </CharString>
          <CharString index="38">
            rmoveto
            76 13 59 49 76 hhcurveto
            77 41 -49 -76 -13 hvcurveto
            -76 -14 -58 -49 -77 hhcurveto
            -76 -42 49 76 14 hvcurveto
            return
          </CharString>
          <CharString index="39">
            -189 hlineto
            35 198 rlineto
            337 146 callsubr
            -100 -18 -63 -36 -91 hhcurveto
            207 -263 rmoveto
            345 callgsubr
            116 6 81 57 23 130 rlinecurve
            15 80 rlineto
            86 callsubr
            491 461 -74 callgsubr
            return
          </CharString>
          <CharString index="40">
            rmoveto
            -24 -134 217 callsubr
            -79 -53 -86 hhcurveto
            -86 -45 41 63 -8 309 callgsubr
            -122 8 82 -82 156 hhcurveto
            162 115 111 153 27 hvcurveto
            98 557 rlineto
            -113 hlineto
            257 callgsubr
            80 -14 -64 56 -105 hhcurveto
            -142 -123 -103 273 callgsubr
            -111 144 hhcurveto
            103 82 57 79 41 hvcurveto
            26 148 255 callgsubr
            -56 68 114 21 hvcurveto
            115 20 79 67 100 hhcurveto
            96 60 -71 -111 -20 hvcurveto
            return
          </CharString>
          <CharString index="41">
            331 callgsubr
            -48 61 100 18 hvcurveto
            107 return
          </CharString>
          <CharString index="42">
            hlineto
            -15 -84 rlineto
            -94 -17 -61 141 callgsubr
            return
          </CharString>
          <CharString index="43">
            652 rlineto
            return
          </CharString>
          <CharString index="44">
            hhcurveto
            39 hlineto
            65 55 -23 -72 -13 hvcurveto
            -53 -9 -50 -39 -75 hhcurveto
            -89 -43 46 67 10 hvcurveto
            -104 hlineto
            return
          </CharString>
          <CharString index="45">
            rmoveto
            -91 -69 61 104 18 119 callgsubr
            21 26 221 -217 rcurveline
            -25 -32 -41 -16 -48 hhcurveto
            return
          </CharString>
          <CharString index="46">
            hhcurveto
            123 -15 callgsubr
            return
          </CharString>
          <CharString index="47">
            hlineto
            -16 -88 rlineto
            416 -56 callgsubr
            return
          </CharString>
          <CharString index="48">
            rlineto
            -52 callgsubr
            return
          </CharString>
          <CharString index="49">
            141 82 68 100 18 hvcurveto
            124 22 -92 50 -106 hhcurveto
            -44 hlineto
            -49 -41 18 54 9 hvcurveto
            59 11 58 13 49 hhcurveto
            return
          </CharString>
          <CharString index="50">
            -88 rlineto
            122 81 callsubr
            105 hlineto
            return
          </CharString>
          <CharString index="51">
            -75 callgsubr
            -105 hlineto
            return
          </CharString>
          <CharString index="52">
            122 -22 callsubr
            return
          </CharString>
          <CharString index="53">
            -88 rlineto
            274 139 callgsubr
            -111 -19 -65 -33 -82 hhcurveto
            -32 hlineto
            -26 -147 return
          </CharString>
          <CharString index="54">
            -100 callsubr
            104 hlineto
            -39 return
          </CharString>
          <CharString index="55">
            -100 callsubr
            112 hlineto
            -49 -274 rlineto
            -122 -22 71 -84 125 hhcurveto
            128 77 88 118 20 hvcurveto
            49 274 rlineto
            return
          </CharString>
          <CharString index="56">
            rmoveto
            -214 -38 113 -151 209 hhcurveto
            195 139 120 161 50 hvcurveto
            19 109 rlineto
            -356 hlineto
            -15 -84 rlineto
            259 hlineto
            -130 -41 -106 -74 -115 hhcurveto
            -144 -81 94 164 29 hvcurveto
            156 27 115 97 133 hhcurveto
            99 62 -52 -73 16 hvcurveto
            121 hlineto
            135 -16 -94 96 -171 hhcurveto
            -208 -165 -146 -208 -36 hvcurveto
            return
          </CharString>
          <CharString index="57">
            114 -64 callsubr
            return
          </CharString>
          <CharString index="58">
            -100 callsubr
            386 300 callgsubr
            -101 hlineto
            -93 -95 -39 -105 -18 hvcurveto
            -21 callgsubr
            -116 -18 89 -77 148 hhcurveto
            -58 callsubr
            return
          </CharString>
          <CharString index="59">
            204 callgsubr
            -67 -127 2 callgsubr
            return
          </CharString>
          <CharString index="60">
            -94 -36 -16 callsubr
            274 hlineto
            -43 -246 rlineto
            -73 -18 -55 -58 -83 hhcurveto
            425 69 callsubr
            return
          </CharString>
          <CharString index="61">
            rmoveto
            56 9 48 28 59 hhcurveto
            80 30 -49 -48 hvcurveto
            123 hlineto
            102 -4 -68 86 -159 hhcurveto
            -128 -97 -63 -98 -17 hvcurveto
            -49 -278 388 100 -34 -197 rrcurveto
            -54 -9 -43 -41 -69 hhcurveto
            -87 -34 57 55 3 hvcurveto
            -121 hlineto
            -114 -1 83 -89 155 hhcurveto
            146 84 86 89 16 hvcurveto
            50 285 -387 -100 33 187 rrcurveto
            return
          </CharString>
          <CharString index="62">
            -17 callgsubr
            132 rlineto
            return
          </CharString>
          <CharString index="63">
            -72 60 110 15 44 callsubr
            19 -63 351 callsubr
            -139 -89 -101 -132 -3 hvcurveto
            95 hlineto
            81 -1 43 62 77 hhcurveto
            59 27 -43 -54 -10 hvcurveto
            -108 -18 -101 -26 -104 hhcurveto
            -94 hlineto
            return
          </CharString>
          <CharString index="64">
            rmoveto
            -14 -80 241 113 16 89 rlineto
            endchar
          </CharString>
          <CharString index="65">
            353 rmoveto
            -211 -37 109 -148 203 hhcurveto
            178 131 98 146 65 hvcurveto
            -120 hlineto
            -81 -46 -83 -57 -108 hhcurveto
            -125 -78 97 156 28 hvcurveto
            157 27 112 97 125 hhcurveto
            108 63 -57 -82 17 hvcurveto
            120 hlineto
            147 -12 -98 98 -178 hhcurveto
            -203 -161 -149 -211 -37 hvcurveto
            return
          </CharString>
          <CharString index="66">
            652 -74 callgsubr
            return
          </CharString>
          <CharString index="67">
            7 callsubr
            575 hlineto
            -12 -76 -13 -93 -51 -50 -76 -14 rlinecurve
            75 -18 -64 43 -94 hhcurveto
            -129 -104 -3 callgsubr
            714 104 rmoveto
            -118 -54 72 90 13 hvcurveto
            2 1 1 2 vvcurveto
            125 8 79 70 18 122 15 94 308 callsubr
            -295 rlineto
            -99 -23 -86 -67 -103 253 callgsubr
            -1468 -70 callsubr
            46 hvcurveto
            -3 17 18 -2 19 hhcurveto
            76 70 29 54 47 hvcurveto
            -66 31 67 -42 101 hhcurveto
            95 74 154 callsubr
            endchar
          </CharString>
          <CharString index="68">
            -27 callgsubr
            215 197 callsubr
            return
          </CharString>
          <CharString index="69">
            66 37 55 42 hvcurveto
            -31 -178 rlineto
            return
          </CharString>
          <CharString index="70">
            hhcurveto
            -69 -39 45 65 11 hvcurveto
            return
          </CharString>
          <CharString index="71">
            155 callsubr
            -123 hhcurveto
            -91 -83 -46 -85 -43 hvcurveto
            21 122 203 callsubr
            -551 134 callgsubr
            52 296 rlineto
            -3 vlineto
            115 20 71 56 88 hhcurveto
            86 47 -54 -101 -18 hvcurveto
            return
          </CharString>
          <CharString index="72">
            299 12 callgsubr
            return
          </CharString>
          <CharString index="73">
            -5 callgsubr
            866 -65 callsubr
            -20 hlineto
            61 -25 -70 30 -101 hhcurveto
            -170 hlineto
            -125 -106 -63 -130 -23 hvcurveto
            -127 -22 87 -79 114 hhcurveto
            111 96 70 116 138 callgsubr
            41 hlineto
            93 28 -43 -50 -9 hvcurveto
            0 vlineto
            -19 -108 -45 callsubr
            return
          </CharString>
          <CharString index="74">
            rmoveto
            96 17 83 65 96 hhcurveto
            100 56 -70 -96 -17 hvcurveto
            -95 -17 -83 -67 -97 hhcurveto
            -98 -57 71 96 17 hvcurveto
            return
          </CharString>
          <CharString index="75">
            62 95 18 hvcurveto
            38 220 rlineto
            256 hlineto
            return
          </CharString>
          <CharString index="76">
            rmoveto
            85 14 68 56 80 hhcurveto
            81 45 -58 -82 -14 hvcurveto
            -81 -15 -65 -56 -81 hhcurveto
            -79 -49 54 82 15 hvcurveto
            377 1 rmoveto
            82 15 65 58 82 hhcurveto
            80 47 -56 -85 -14 hvcurveto
            -82 -15 -68 -54 -80 hhcurveto
            -81 -45 56 81 14 hvcurveto
            return
          </CharString>
          <CharString index="77">
            285 rmoveto
            -182 -32 96 -110 159 hhcurveto
            143 113 82 129 45 hvcurveto
            13 callsubr
            return
          </CharString>
          <CharString index="78">
            hmoveto
            122 hlineto
            -137 695 rlineto
            -131 hlineto
            -382 -695 rlineto
            122 hlineto
            81 153 rlineto
            298 hlineto
            return
          </CharString>
          <CharString index="79">
            7 callsubr
            808 122 callsubr
            -145 hlineto
            -84 -76 -21 -46 -57 hvcurveto
            70 -20 -62 38 -94 327 callsubr
            20 -56 42 -35 rrcurveto
            -44 -30 -51 -38 -75 hhcurveto
            1149 565 -74 callgsubr
            -1413 -70 callsubr
            45 hvcurveto
            -3 16 18 -2 18 hhcurveto
            54 50 13 26 40 hvcurveto
            -110 11 84 -55 122 hhcurveto
            26 272 callgsubr
            331 callsubr
            83 53 110 hhcurveto
            141 298 callsubr
          </CharString>
          <CharString index="80">
            -124 -22 68 220 callgsubr
            128 -1 return
          </CharString>
          <CharString index="81">
            rmoveto
            1 2 1 6 1 7 rrcurveto
            -103 hlineto
            -2 -14 rlineto
            -70 -13 -48 -48 -66 hhcurveto
            -80 -23 57 72 14 128 callsubr
            144 125 73 151 27 hvcurveto
            25 137 -79 79 -129 -1 rrcurveto
            -23 -21 -3 -6 -19 hvcurveto
            -918 hlineto
            -15 -66 callgsubr
            45 hvcurveto
            -3 16 17 -2 18 hhcurveto
            49 46 11 22 38 hvcurveto
            -110 1 77 -59 112 hhcurveto
            130 84 78 130 22 hvcurveto
            -845 -113 rmoveto
            -78 callgsubr
            564 hlineto
            4 14 14 2 13 hhcurveto
            69 33 -46 -71 -12 hvcurveto
            -101 -18 -93 -41 -101 hhcurveto
            -59 hlineto
            88 -9 -67 50 -106 327 callsubr
            19 -57 43 -35 rrcurveto
            -43 -31 -51 -38 -74 hhcurveto
            return
          </CharString>
          <CharString index="82">
            hhcurveto
            123 80 78 118 callgsubr
            151 hlineto
            -161 -22 92 -103 157 hhcurveto
            98 73 40 55 47 hvcurveto
            -35 -198 347 callgsubr
          </CharString>
          <CharString index="83">
            109 callgsubr
            -20 -66 -44 216 callsubr
            return
          </CharString>
          <CharString index="84">
            -71 -93 -18 144 callsubr
            return
          </CharString>
          <CharString index="85">
            hlineto
            -46 callgsubr
            return
          </CharString>
          <CharString index="86">
            hvcurveto
            -2 253 callsubr
            -102 -78 177 callgsubr
            -93 callgsubr
            return
          </CharString>
          <CharString index="87">
            rmoveto
            -53 -37 37 59 11 hvcurveto
            61 return
          </CharString>
          <CharString index="88">
            rmoveto
            -67 -48 45 81 14 hvcurveto
            77 14 61 45 67 hhcurveto
            86 25 -66 -58 -11 hvcurveto
            -59 -10 -48 -65 -83 hhcurveto
            return
          </CharString>
          <CharString index="89">
            89 callsubr
            273 hlineto
            -42 -240 rlineto
            -72 -13 -61 -65 -86 hhcurveto
            429 198 callgsubr
            return
          </CharString>
          <CharString index="90">
            rmoveto
            -30 callgsubr
            return
          </CharString>
          <CharString index="91">
            64 98 17 hvcurveto
            38 215 rlineto
            return
          </CharString>
          <CharString index="92">
            rrcurveto
            111 20 -80 62 -104 hhcurveto
            -112 -101 -66 -112 -19 hvcurveto
            -17 -95 55 -58 70 -21 -90 -42 -92 -48 -19 -110 rrcurveto
            -98 -18 60 -69 106 hhcurveto
            76 50 41 29 21 hvcurveto
            -27 -158 rlineto
            return
          </CharString>
          <CharString index="93">
            -16 callgsubr
            hhcurveto
            return
          </CharString>
          <CharString index="94">
            rmoveto
            25 -18 17 -25 -25 -18 -17 -25 -25 18 -17 25 25 18 17 25 vhcurveto
            return
          </CharString>
          <CharString index="95">
            -236 -207 299 callgsubr
            270 249 13 9 12 11 10 12 rlinecurve
            -46 -265 rlineto
            104 -69 callgsubr
            endchar
          </CharString>
          <CharString index="96">
            737 175 callgsubr
            676 hlineto
            -12 -65 -16 -84 -47 -37 -86 -6 rlinecurve
            57 -23 -53 30 -68 20 callsubr
            589 76 rmoveto
            -112 -56 62 102 -4 hvcurveto
            1 8 0 8 1 7 129 6 84 67 22 121 340 callgsubr
            -101 -23 -88 -67 -101 253 callgsubr
            -1408 17 callgsubr
            return
          </CharString>
          <CharString index="97">
            122 -8 callsubr
            -624 -5 callgsubr
            400 143 callsubr
            -129 -103 -81 -128 -29 hvcurveto
            -111 -33 -75 -56 -116 -73 callgsubr
            return
          </CharString>
          <CharString index="98">
            hmoveto
            126 hlineto
            213 428 61 -428 322 callgsubr
            251 551 rlineto
            -108 hlineto
            -184 -446 -60 446 rlineto
            -121 hlineto
            -217 -446 -25 446 102 callgsubr
            return
          </CharString>
          <CharString index="99">
            hlineto
            -71 callgsubr
            return
          </CharString>
          <CharString index="100">
            hhcurveto
            -133 -95 -78 -102 -29 hvcurveto
            99 hlineto
            46 20 50 45 73 hhcurveto
            89 32 -69 -78 -14 hvcurveto
            -80 -14 -57 -68 -89 hhcurveto
            -71 -34 43 48 -5 hvcurveto
            -99 hlineto
            -100 -5 67 -80 132 hhcurveto
            return
          </CharString>
          <CharString index="101">
            hlineto
            -33 -187 rlineto
            52 -27 -55 38 -87 hhcurveto
            return
          </CharString>
          <CharString index="102">
            467 rmoveto
            85 74 -49 -113 -25 hvcurveto
            -331 hlineto
            116 27 82 46 88 hhcurveto
            224 -275 rmoveto
            -121 hlineto
            -67 -26 -66 -41 -81 hhcurveto
            -84 -66 49 120 15 hvcurveto
            440 hlineto
            6 16 3 12 4 21 rrcurveto
            143 26 -71 113 -153 hhcurveto
            -103 -83 -47 -89 -43 hvcurveto
            23 129 15 callsubr
            257 callgsubr
            79 -14 -62 56 -103 hhcurveto
            -143 -125 -106 -176 -31 hvcurveto
            -177 -31 87 -106 143 hhcurveto
            103 83 326 callgsubr
            23 129 rlineto
            -89 12 72 -47 97 hhcurveto
            130 102 84 115 42 hvcurveto
            -878 84 rmoveto
            114 20 79 68 100 hhcurveto
            97 59 -71 -111 -20 hvcurveto
            -112 -20 -84 -70 -96 hhcurveto
            -101 -54 67 115 20 hvcurveto
            return
          </CharString>
          <CharString index="103">
            rmoveto
            -118 -59 68 111 21 hvcurveto
            2 1 2 1 3 vhcurveto
            124 7 74 66 21 122 15 80 rcurveline
            86 callsubr
            return
          </CharString>
          <CharString index="104">
            hhcurveto
            -103 -62 -68 -67 -30 -21 callsubr
            return
          </CharString>
          <CharString index="105">
            900 411 121 callsubr
            -18 -60 141 callgsubr
            -623 -235 -107 callgsubr
            917 392 rmoveto
            15 84 rlineto
            return
          </CharString>
          <CharString index="106">
            hhcurveto
            -45 hlineto
            -11 -68 rlineto
            47 hlineto
            82 43 -5 -158 60 hvcurveto
            73 -77 -30 2 -98 hhcurveto
            -43 hlineto
            -12 -67 rlineto
            45 hlineto
            return
          </CharString>
          <CharString index="107">
            hhcurveto
            72 56 28 45 39 hvcurveto
            -45 -259 rlineto
            104 -69 callgsubr
            endchar
          </CharString>
          <CharString index="108">
            364 485 hmoveto
            -104 callsubr
            15 88 rlineto
            -1033 hlineto
            -15 -88 rlineto
            473 80 callsubr
            return
          </CharString>
          <CharString index="109">
            83 rlineto
            -20 hlineto
            -111 return
          </CharString>
          <CharString index="110">
            257 rmoveto
            -45 -257 134 callgsubr
            45 257 314 449 rlineto
            -130 hlineto
            -220 -327 -104 327 rlineto
            -132 hlineto
            return
          </CharString>
          <CharString index="111">
            -2 -13 -1 -15 1 -12 rrcurveto
            105 hlineto
            -1 13 1 12 2 11 rrcurveto
            58 return
          </CharString>
          <CharString index="112">
            -52 -40 19 52 10 hvcurveto
            60 10 61 13 47 76 callsubr
            return
          </CharString>
          <CharString index="113">
            123 callgsubr
            9 42 132 callgsubr
            return
          </CharString>
          <CharString index="114">
            -69 callsubr
            -200 -246 rmoveto
            -78 callgsubr
            return
          </CharString>
          <CharString index="115">
            rmoveto
            201 -113 14 80 -199 122 rlineto
            endchar
          </CharString>
          <CharString index="116">
            485 rmoveto
            -75 -13 -48 -47 -100 hhcurveto
            -125 hlineto
            44 245 322 callgsubr
            100 29 -49 -74 -12 hvcurveto
            -340 221 rmoveto
            304 callsubr
            50 282 rlineto
            81 hlineto
            126 -282 rlineto
            128 hlineto
            -135 287 122 20 76 75 19 109 rlinecurve
            123 22 -62 92 -168 hhcurveto
            return
          </CharString>
          <CharString index="117">
            -18 callgsubr
            endchar
          </CharString>
          <CharString index="118">
            -111 -19 67 33 callsubr
            endchar
          </CharString>
          <CharString index="119">
            hlineto
            -72 45 callgsubr
            return
          </CharString>
          <CharString index="120">
            -121 hlineto
            -70 -25 -63 -42 -76 hhcurveto
            -82 -63 57 127 22 hvcurveto
            126 23 83 57 81 hhcurveto
            77 48 -42 -69 hvcurveto
            121 hlineto
            128 1 -86 82 -145 hhcurveto
            -157 -131 -102 -171 -31 hvcurveto
            return
          </CharString>
          <CharString index="121">
            -69 callsubr
            401 319 -28 callgsubr
            -864 -70 callsubr
            46 hvcurveto
            91 callsubr
          </CharString>
          <CharString index="122">
            rlineto
            -114 hlineto
            return
          </CharString>
          <CharString index="123">
            13 rmoveto
            -168 -275 rlineto
            127 hlineto
            477 813 323 callgsubr
            -224 -405 -94 405 rlineto
            -128 hlineto
            return
          </CharString>
          <CharString index="124">
            17 92 rlineto
            -1 -10 return
          </CharString>
          <CharString index="125">
            -74 callgsubr
            -693 245 callgsubr
            -23 -130 64 -97 110 -38 -171 -159 84 callgsubr
            -107 148 112 21 76 71 17 97 rlinecurve
            -81 callgsubr
            101 hlineto
            30 173 rlineto
            endchar
          </CharString>
          <CharString index="126">
            68 562 rmoveto
            -96 -17 55 -57 87 hhcurveto
            87 74 57 96 18 hvcurveto
            97 16 -55 57 -87 hhcurveto
            -87 -74 -57 -97 -17 hvcurveto
            166 84 rmoveto
            44 24 -33 -51 -9 hvcurveto
            -50 -9 -35 -33 -45 hhcurveto
            -43 -24 33 50 10 hvcurveto
            51 8 35 33 44 hhcurveto
            -201 -646 rmoveto
            111 hlineto
            525 707 rlineto
            -112 hlineto
            -227 -562 rmoveto
            -97 -16 55 -57 87 hhcurveto
            87 74 57 97 17 hvcurveto
            96 17 -54 57 -88 hhcurveto
            -86 -75 -57 -96 -18 hvcurveto
            167 83 rmoveto
            44 24 -34 -49 -10 hvcurveto
            -51 -8 -36 -33 -44 hhcurveto
            -44 -23 340 callsubr
            return
          </CharString>
          <CharString index="127">
            hhcurveto
            -93 -97 -48 -124 -22 hvcurveto
            -6 -35 0 -34 5 -30 rrcurveto
            87 hlineto
            -4 30 -1 31 5 27 rrcurveto
            75 13 54 30 44 hhcurveto
            51 39 -44 -84 -15 hvcurveto
            -143 -26 -127 -83 -169 hhcurveto
            return
          </CharString>
          <CharString index="128">
            rrcurveto
            51 callsubr
            return
          </CharString>
          <CharString index="129">
            -6 194 381 rmoveto
            -92 -28 -63 -57 -15 -86 rrcurveto
            -146 -26 98 -82 152 hhcurveto
            165 119 72 129 23 hvcurveto
            17 98 -42 70 -87 30 86 26 51 54 12 71 rrcurveto
            107 19 -68 93 -162 hhcurveto
            -162 -100 -84 -96 -18 hvcurveto
            -14 -81 29 -64 78 -26 rrcurveto
            170 257 rmoveto
            78 48 -42 -77 -14 hvcurveto
            -71 -12 -60 -37 -80 hhcurveto
            -80 -46 41 77 14 hvcurveto
            71 12 62 38 78 hhcurveto
            -54 -307 rmoveto
            84 62 -40 -91 -16 hvcurveto
            -78 -14 -69 -46 -92 hhcurveto
            -92 -52 50 85 15 hvcurveto
            83 15 76 37 83 hhcurveto
            endchar
          </CharString>
          <CharString index="130">
            hlineto
            -17 -97 rlineto
            -72 -12 -46 -46 -63 hhcurveto
            -63 -28 46 72 13 hvcurveto
            18 97 rlineto
            -106 hlineto
            -18 -99 rlineto
            -122 -22 65 -87 132 hhcurveto
            124 83 87 122 21 hvcurveto
            2 14 rlineto
            return
          </CharString>
          <CharString index="131">
            25 140 -83 92 -120 21 20 110 rcurveline
            310 -8 callsubr
            return
          </CharString>
          <CharString index="132">
            -28 callgsubr
            -619 -100 callsubr
            386 300 callgsubr
            -101 hlineto
            -93 -95 -39 -105 -18 hvcurveto
            -21 callgsubr
            -13 -86 45 -65 86 -28 -168 -156 84 callgsubr
            -109 151 90 22 54 59 14 78 rlinecurve
            206 callsubr
            endchar
          </CharString>
          <CharString index="133">
            -72 60 110 15 44 callsubr
            19 -63 351 callsubr
            -24 -23 -3 -6 -22 hvcurveto
            -738 -100 callsubr
            632 hlineto
            -26 -38 -14 -47 -1 -51 rrcurveto
            95 hlineto
            81 -1 43 62 77 hhcurveto
            59 27 -43 -54 -10 hvcurveto
            -108 -18 -101 -26 -104 hhcurveto
            -386 hlineto
            -125 -107 -63 -129 -22 hvcurveto
            -123 -22 83 -83 115 hhcurveto
            113 95 68 118 21 hvcurveto
            10 54 -12 176 callsubr
            148 hlineto
            -146 -10 94 -102 176 hhcurveto
            return
          </CharString>
          <CharString index="134">
            hlineto
            -20 -118 -86 -13 -53 -59 -28 -60 rlinecurve
            return
          </CharString>
          <CharString index="135">
            24 callsubr
            -722 -5 callgsubr
            309 hlineto
            -19 -108 -127 -17 -111 -85 -25 -142 rlinecurve
            return
          </CharString>
          <CharString index="136">
            rmoveto
            -87 -54 58 93 16 hvcurveto
            91 16 77 58 85 hhcurveto
            105 34 -77 -74 -14 hvcurveto
            -69 -12 -61 -80 -105 hhcurveto
            return
          </CharString>
          <CharString index="137">
            64 callsubr
            -228 hlineto
            -130 323 callsubr
          </CharString>
          <CharString index="138">
            hlineto
            -15 -84 rlineto
            26 hlineto
            82 59 -45 -86 -15 hvcurveto
            -67 -12 -54 -52 -76 hhcurveto
            -68 -52 42 77 5 hvcurveto
            -98 hlineto
            -48 -278 rlineto
            102 hlineto
            26 150 22 -43 52 -32 76 -2 rlinecurve
            111 -3 88 73 17 111 11 74 -25 51 -45 30 rrcurveto
            return
          </CharString>
          <CharString index="139">
            rmoveto
            -80 -49 54 90 16 hvcurveto
            87 15 72 54 76 hhcurveto
            93 30 -68 -64 -7 hvcurveto
            -4 -21 return
          </CharString>
          <CharString index="140">
            -74 -67 callgsubr
            return
          </CharString>
          <CharString index="141">
            -16 90 -100 157 -65 callgsubr
          </CharString>
          <CharString index="142">
            49 callsubr
            64 hhcurveto
            81 173 callsubr
            return
          </CharString>
          <CharString index="143">
            rmoveto
            -168 hlineto
            35 195 rlineto
            167 hlineto
            return
          </CharString>
          <CharString index="144">
            114 6 callgsubr
            return
          </CharString>
          <CharString index="145">
            -59 81 509 rmoveto
            112 hlineto
            82 18 64 41 67 hhcurveto
            71 36 -42 -69 -11 hvcurveto
            -14 -75 -68 -31 -102 1 rrcurveto
            -26 hlineto
            -17 -94 rlineto
            26 hlineto
            115 56 -48 -88 -16 hvcurveto
            -55 -9 -47 -41 -73 hhcurveto
            -99 -37 54 77 5 hvcurveto
            -112 hlineto
            -150 -10 88 -78 157 hhcurveto
            147 84 75 101 17 hvcurveto
            20 116 -60 60 -85 25 1 5 rcurveline
            94 12 64 60 15 83 rrcurveto
            110 19 -64 88 -146 hhcurveto
            -148 -104 -81 -138 -28 hvcurveto
            endchar
          </CharString>
          <CharString index="146">
            104 299 275 rmoveto
            234 callgsubr
            672 198 callgsubr
            -945 134 callsubr
            107 hlineto
            136 24 -68 94 -122 hhcurveto
            -85 -63 -40 -54 -39 hvcurveto
            35 195 rlineto
            return
          </CharString>
          <CharString index="147">
            hvcurveto
            -2 253 callsubr
            -102 -78 177 callgsubr
            -141 -25 68 -111 161 hhcurveto
            10 8 130 callgsubr
            -93 callsubr
            50 60 81 hhcurveto
            82 return
          </CharString>
          <CharString index="148">
            rmoveto
            -68 -12 42 -41 60 hhcurveto
            61 57 41 68 11 hvcurveto
            69 12 -42 41 -60 hhcurveto
            -60 -57 -41 -69 -12 hvcurveto
            168 hmoveto
            -37 -6 -30 -23 -33 hhcurveto
            -33 -22 23 37 7 hvcurveto
            38 7 29 23 33 hhcurveto
            34 21 -23 -38 -7 hvcurveto
            endchar
          </CharString>
          <CharString index="149">
            47 callgsubr
            102 hlineto
            return
          </CharString>
          <CharString index="150">
            -41 716 rmoveto
            12 65 rlineto
            64 13 30 73 84 hhcurveto
            82 5 -73 -64 -11 hvcurveto
            -8 -41 60 callsubr
            return
          </CharString>
          <CharString index="151">
            101 callgsubr
            70 193 callsubr
            113 return
          </CharString>
          <CharString index="152">
            rmoveto
            -87 -54 58 93 16 hvcurveto
            91 16 77 58 85 hhcurveto
            100 35 -71 -71 -9 hvcurveto
            -2 -15 rlineto
            -68 -16 -59 -75 -102 hhcurveto
            -671 -83 329 callsubr
            87 58 25 145 rlinecurve
            20 121 rlineto
            792 hlineto
            -33 -186 rlineto
            52 -27 -54 37 -87 hhcurveto
            -77 -68 -33 -58 -47 hvcurveto
            47 -29 -56 26 -74 hhcurveto
            -127 -99 289 callgsubr
            19 -57 43 -35 rrcurveto
            -43 -31 -51 -38 -74 hhcurveto
            endchar
          </CharString>
          <CharString index="153">
            -78 -65 -100 -17 hvcurveto
            100 callsubr
            return
          </CharString>
          <CharString index="154">
            -20 574 516 rmoveto
            112 4 -48 99 -154 hhcurveto
            -185 -90 -130 -239 -42 hvcurveto
            -197 -35 26 -168 223 hhcurveto
            158 93 104 129 23 hvcurveto
            155 27 -70 87 -138 hhcurveto
            -89 -82 -45 -73 -33 hvcurveto
            199 29 64 85 103 hhcurveto
            78 27 -47 -71 3 hvcurveto
            -141 -137 rmoveto
            85 47 -52 -99 -18 hvcurveto
            -87 -15 -65 -49 -82 hhcurveto
            -105 -33 73 80 15 hvcurveto
            92 16 83 42 72 hhcurveto
            endchar
          </CharString>
          <CharString index="155">
            64 callgsubr
            rrcurveto
            -143 -28 130 -83 187 264 callsubr
            return
          </CharString>
          <CharString index="156">
            -54 -36 129 callgsubr
            51 36 return
          </CharString>
          <CharString index="157">
            -1 callsubr
            106 16 -4 -83 97 hvcurveto
            -129 196 callsubr
            return
          </CharString>
          <CharString index="158">
            -77 callsubr
            168 hlineto
            -66 50 callgsubr
            return
          </CharString>
          <CharString index="159">
            551 rmoveto
            -392 hlineto
            -18 -96 rlineto
            262 hlineto
            -332 -364 -17 -91 rlineto
            409 hlineto
            18 96 rlineto
            -284 hlineto
            337 364 rlineto
            return
          </CharString>
          <CharString index="160">
            -71 callgsubr
            -685 -5 callgsubr
            170 -24 callsubr
            -2 -16 -1 -3 rcurveline
            0 vlineto
            -125 -17 -89 -78 -115 hhcurveto
            -72 -63 32 68 12 hvcurveto
            57 9 50 -79 callgsubr
            return
          </CharString>
          <CharString index="161">
            482 215 -100 callgsubr
            return
          </CharString>
          <CharString index="162">
            -33 callsubr
            127 -255 rmoveto
            153 132 93 154 27 hvcurveto
            28 callsubr
            226 callsubr
          </CharString>
          <CharString index="163">
            121 -8 callsubr
            return
          </CharString>
          <CharString index="164">
            87 127 15 hvcurveto
            return
          </CharString>
          <CharString index="165">
            -16 321 callsubr
            -4 -21 rlineto
            -39 -7 -19 -19 -34 hhcurveto
            -9 -48 rlineto
            74 47 45 79 14 hvcurveto
            5 30 2 33 -4 37 rrcurveto
            endchar
          </CharString>
          <CharString index="166">
            -96 callsubr
            409 279 36 callsubr
            227 hmoveto
            -46 callgsubr
            return
          </CharString>
          <CharString index="167">
            rlineto
            -11 callgsubr
            -122 hlineto
            return
          </CharString>
          <CharString index="168">
            115 hlineto
            269 252 10 8 9 9 8 9 rlinecurve
            -46 -262 -102 callsubr
            endchar
          </CharString>
          <CharString index="169">
            299 275 219 callgsubr
            return
          </CharString>
          <CharString index="170">
            170 -92 callsubr
            return
          </CharString>
          <CharString index="171">
            rmoveto
            38 callgsubr
            return
          </CharString>
          <CharString index="172">
            rmoveto
            366 hlineto
            14 78 rlineto
            -366 hlineto
            endchar
          </CharString>
          <CharString index="173">
            12 64 rlineto
            -104 hlineto
            -39 -21 19 32 5 hvcurveto
            27 5 27 16 39 hhcurveto
            62 hlineto
            return
          </CharString>
          <CharString index="174">
            65 callgsubr
            -54 -32 -36 -52 -12 -64 rrcurveto
            return
          </CharString>
          <CharString index="175">
            37 callgsubr
            -1395 174 callgsubr
            81 62 75 46 hvcurveto
            -3 16 16 -2 18 hhcurveto
            69 61 22 42 44 hvcurveto
            -68 26 63 -38 85 hhcurveto
            83 66 36 56 42 hvcurveto
            -31 -178 rlineto
            return
          </CharString>
          <CharString index="176">
            377 -74 callgsubr
            return
          </CharString>
          <CharString index="177">
            -406 -59 callsubr
            return
          </CharString>
          <CharString index="178">
            -83 callsubr
            120 hlineto
            123 callgsubr
            10 41 67 callgsubr
            return
          </CharString>
          <CharString index="179">
            rmoveto
            153 132 93 154 27 hvcurveto
            24 callsubr
            return
          </CharString>
          <CharString index="180">
            hlineto
            -27 -150 rlineto
            -320 hlineto
            return
          </CharString>
          <CharString index="181">
            -91 -43 66 100 18 hvcurveto
            25 140 240 -215 rlineto
            -53 -28 -52 -38 -69 hhcurveto
            172 162 rmoveto
            -248 222 rlineto
            287 hlineto
            224 hmoveto
            -71 callgsubr
            return
          </CharString>
          <CharString index="182">
            76 13 65 55 84 hhcurveto
            37 hlineto
            67 callsubr
            return
          </CharString>
          <CharString index="183">
            hhcurveto
            179 198 callsubr
            19 106 rlineto
            return
          </CharString>
          <CharString index="184">
            114 78 callgsubr
            return
          </CharString>
          <CharString index="185">
            9 53 147 callgsubr
            return
          </CharString>
          <CharString index="186">
            -25 -143 88 -96 135 -1 -171 -143 rcurveline
            112 hlineto
            151 547 rmoveto
            111 43 -84 127 callsubr
            -28 -219 217 rcurveline
            26 35 42 15 44 hhcurveto
            -57 -333 rmoveto
            -93 -68 61 103 19 119 callgsubr
            21 26 220 -217 rcurveline
            -24 -31 -41 -16 -48 hhcurveto
            endchar
          </CharString>
          <CharString index="187">
            -105 callgsubr
            -107 176 -107 callgsubr
            return
          </CharString>
          <CharString index="188">
            hlineto
            -115 -652 rlineto
            return
          </CharString>
          <CharString index="189">
            -61 -19 5 rmoveto
            491 338 callsubr
            -335 hlineto
            157 86 208 156 27 159 rrcurveto
            137 25 -72 83 -146 hhcurveto
            -131 -120 -77 -172 -30 hvcurveto
            111 hlineto
            99 18 50 53 81 hhcurveto
            87 22 -57 -72 -13 hvcurveto
            -22 -123 -190 -148 -219 -133 rrcurveto
            endchar
          </CharString>
          <CharString index="190">
            229 178 -39 callsubr
            return
          </CharString>
          <CharString index="191">
            28 callgsubr
            234 -215 return
          </CharString>
          <CharString index="192">
            rlineto
            128 23 -36 93 -133 hhcurveto
            return
          </CharString>
          <CharString index="193">
            184 hlineto
            -49 -280 rlineto
            0 vlineto
            -107 -18 -89 -74 -108 hhcurveto
            return
          </CharString>
          <CharString index="194">
            -71 callgsubr
            -698 -5 callgsubr
            183 109 callgsubr
            -20 -66 -44 -111 hhcurveto
            -15 hlineto
            -4 -16 -4 -19 -3 -16 rrcurveto
            -1 -5 -1 return
          </CharString>
          <CharString index="195">
            -66 callsubr
            19 82 53 111 hhcurveto
            return
          </CharString>
          <CharString index="196">
            rmoveto
            -92 -34 -16 callsubr
            return
          </CharString>
          <CharString index="197">
            rmoveto
            -120 -52 71 104 10 hvcurveto
            128 8 78 82 21 116 298 callgsubr
            -88 -74 -109 hhcurveto
            -406 298 rmoveto
            111 43 -85 256 callgsubr
            -15 -32 -22 -28 -219 218 rcurveline
            26 35 43 15 44 hhcurveto
            endchar
          </CharString>
          <CharString index="198">
            -3 17 18 -2 19 hhcurveto
            125 107 75 130 23 hvcurveto
            127 22 -76 77 -129 hhcurveto
            -129 -104 -3 callgsubr
            -78 callgsubr
            endchar
          </CharString>
          <CharString index="199">
            706 rmoveto
            -236 128 callgsubr
            236 hlineto
            236 159 141 213 37 hvcurveto
            213 38 -110 139 -236 hhcurveto
            -228 -603 rmoveto
            89 502 rlineto
            112 hlineto
            171 76 -94 -157 -28 hvcurveto
            -158 -28 -108 -93 -172 hhcurveto
            return
          </CharString>
          <CharString index="200">
            91 -112 166 -80 callsubr
            return
          </CharString>
          <CharString index="201">
            -142 -92 callgsubr
            return
          </CharString>
          <CharString index="202">
            -53 callsubr
            -215 rlineto
            -153 -28 return
          </CharString>
          <CharString index="203">
            419 15 callsubr
            return
          </CharString>
          <CharString index="204">
            -34 -194 rlineto
            return
          </CharString>
          <CharString index="205">
            rmoveto
            87 hlineto
            42 11 24 23 33 hhcurveto
            25 18 -14 -32 -5 hvcurveto
            -7 -39 -32 -29 -40 -28 -140 -92 rcurveline
            -11 -63 rlineto
            280 hlineto
            12 68 rlineto
            -195 hlineto
            89 52 82 44 45 38 10 56 rlinecurve
            55 10 -33 47 -86 hhcurveto
            -97 -62 -57 -71 -18 hvcurveto
            endchar
          </CharString>
          <CharString index="206">
            652 -28 callgsubr
            return
          </CharString>
          <CharString index="207">
            41 callgsubr
            -58 return
          </CharString>
          <CharString index="208" raw="1">
            ef0a8244 617b0b  
          </CharString>
          <CharString index="209">
            36 callgsubr
            endchar
          </CharString>
          <CharString index="210">
            hmoveto
            114 hlineto
            124 706 15 callsubr
            return
          </CharString>
          <CharString index="211">
            hmoveto
            -36 callsubr
            return
          </CharString>
          <CharString index="212">
            142 302 283 callsubr
            -55 -48 -66 -37 callsubr
            return
          </CharString>
          <CharString index="213">
            hlineto
            -11 -62 -17 -96 -53 -46 -87 -10 rlinecurve
            41 -27 -53 33 -98 hhcurveto
            return
          </CharString>
          <CharString index="214">
            -100 callsubr
            396 hlineto
            -18 -106 rlineto
            -106 hlineto
            -94 -96 -36 -109 -18 hvcurveto
            -18 -102 76 -45 84 -3 rrcurveto
            55 hlineto
            65 57 -22 -74 -13 hvcurveto
            -49 -9 -42 -42 -72 hhcurveto
            -81 -38 47 66 5 hvcurveto
            -94 hlineto
            -45 -256 rlineto
            99 hlineto
            return
          </CharString>
          <CharString index="215">
            -5 callgsubr
            395 hlineto
            -18 -103 203 callsubr
            321 callgsubr
            return
          </CharString>
          <CharString index="216">
            -74 -95 -1 rrcurveto
            return
          </CharString>
          <CharString index="217">
            153 callgsubr
            111 hlineto
            34 193 rlineto
            return
          </CharString>
          <CharString index="218">
            166 callsubr
            -173 return
          </CharString>
          <CharString index="219">
            335 callsubr
            13 hvcurveto
            56 9 46 44 91 hhcurveto
            53 hlineto
            15 85 rlineto
            -45 hlineto
            -88 -27 40 69 11 hvcurveto
            12 63 rlineto
            305 hlineto
            -51 -295 rlineto
            -100 -18 -92 -69 -101 hhcurveto
            489 464 -74 callgsubr
            return
          </CharString>
          <CharString index="220">
            -1 -5 rrcurveto
            -141 -26 69 -111 161 -71 callsubr
            return
          </CharString>
          <CharString index="221">
            -100 callsubr
            407 hlineto
            -15 -85 rlineto
            -69 -12 -50 -46 -77 hhcurveto
            -36 hlineto
            -16 -92 rlineto
            50 hlineto
            98 25 -70 -63 -11 hvcurveto
            -76 -14 -59 -54 -78 hhcurveto
            -79 -50 57 76 14 hvcurveto
            -100 hlineto
            -136 -24 85 -91 142 hhcurveto
            return
          </CharString>
          <CharString index="222">
            479 -69 callsubr
            return
          </CharString>
          <CharString index="223">
            20 116 -46 69 -78 20 19 110 rcurveline
            return
          </CharString>
          <CharString index="224">
            1 rrcurveto
            -43 hlineto
            -15 -86 rlineto
            45 hlineto
            return
          </CharString>
          <CharString index="225">
            rmoveto
            -112 -20 -84 -70 return
          </CharString>
          <CharString index="226">
            hlineto
            98 -5 -71 69 -123 hhcurveto
            -133 -90 -79 -101 -29 hvcurveto
            100 hlineto
            46 21 48 45 74 hhcurveto
            89 32 -64 -71 -12 hvcurveto
            -75 -13 -56 -64 -89 hhcurveto
            -72 -38 44 47 -1 hvcurveto
            -99 hlineto
            -100 -10 78 -80 132 hhcurveto
            return
          </CharString>
          <CharString index="227">
            -12 330 hmoveto
            116 hlineto
            26 152 rlineto
            99 hlineto
            18 100 rlineto
            -99 hlineto
            81 460 rlineto
            -123 hlineto
            -432 -464 -17 -96 rlineto
            358 hlineto
            -222 100 rmoveto
            305 324 -57 -324 rlineto
            endchar
          </CharString>
          <CharString index="228">
            rmoveto
            -4 hlineto
            77 -11 -53 54 -92 hhcurveto
            -82 -58 -39 -51 233 callgsubr
            506 hlineto
            -15 -84 rlineto
            -94 return
          </CharString>
          <CharString index="229">
            hlineto
            -28 -156 rlineto
            return
          </CharString>
          <CharString index="230">
            hvcurveto
            -24 -136 rlineto
            96 hlineto
            81 451 51 41 34 57 12 70 rlinecurve
            -100 hlineto
            -84 -14 -68 -58 -111 hhcurveto
            -109 -48 54 75 13 hvcurveto
            85 15 78 41 89 hhcurveto
            141 hlineto
            32 182 rlineto
            endchar
          </CharString>
          <CharString index="231">
            hhcurveto
            131 82 -88 callsubr
            return
          </CharString>
          <CharString index="232">
            hmoveto
            37 callgsubr
            return
          </CharString>
          <CharString index="233">
            hmoveto
            77 callsubr
            return
          </CharString>
          <CharString index="234">
            256 callgsubr
            -14 -32 -22 return
          </CharString>
          <CharString index="235">
            hvcurveto
            17 98 rlineto
            75 hlineto
            return
          </CharString>
          <CharString index="236">
            244 callgsubr
            63 -95 return
          </CharString>
          <CharString index="237">
            hmoveto
            115 hlineto
            79 453 rlineto
            122 hlineto
            17 98 rlineto
            -122 hlineto
            2 9 14 77 35 32 91 -4 rlinecurve
            18 100 -159 8 -89 -72 -23 -132 rlinecurve
            -3 -18 rlineto
            -75 hlineto
            -17 -98 rlineto
            75 hlineto
            return
          </CharString>
          <CharString index="238">
            rmoveto
            66 13 55 190 callsubr
            -11 -56 -48 -65 -37 callsubr
            return
          </CharString>
          <CharString index="239">
            -51 -69 hhcurveto
            -79 -24 56 73 return
          </CharString>
          <CharString index="240">
            -13 -41 -45 -61 hhcurveto
            return
          </CharString>
          <CharString index="241">
            -78 callsubr
            55 313 rlineto
            77 18 53 71 93 hhcurveto
            76 46 -56 -84 -15 hvcurveto
            return
          </CharString>
          <CharString index="242">
            84 -121 hhcurveto
            -121 -89 -72 -104 -18 hvcurveto
            -16 -89 41 -68 78 -56 -236 -160 rcurveline
            -1 -13 rlineto
            120 hlineto
            189 129 134 -78 -303 -236 -2 -9 rlineto
            124 hlineto
            return
          </CharString>
          <CharString index="243">
            241 callsubr
            -73 133 callsubr
            return
          </CharString>
          <CharString index="244">
            129 183 callgsubr
            return
          </CharString>
          <CharString index="245">
            269 callgsubr
            -62 hlineto
            return
          </CharString>
          <CharString index="246">
            -24 hvcurveto
            -142 return
          </CharString>
          <CharString index="247">
            264 callsubr
            116 callsubr
            endchar
          </CharString>
          <CharString index="248">
            -42 143 66 rmoveto
            10 -27 39 -53 95 -1 118 -1 72 70 17 93 rrcurveto
            133 24 -98 46 -101 hhcurveto
            -44 hlineto
            311 callsubr
            179 hlineto
            return
          </CharString>
          <CharString index="249">
            -91 -30 -32 callsubr
            return
          </CharString>
          <CharString index="250">
            hlineto
            -33 -191 rlineto
            57 -24 -55 37 -86 hhcurveto
            return
          </CharString>
          <CharString index="251">
            hvcurveto
            -2 -18 rlineto
            return
          </CharString>
          <CharString index="252">
            hlineto
            -18 -104 rlineto
            -15 hlineto
            return
          </CharString>
          <CharString index="253">
            hlineto
            -11 -62 rlineto
            return
          </CharString>
          <CharString index="254">
            -5 callgsubr
            359 hlineto
            -31 -175 rlineto
            -88 hlineto
            -114 -99 -62 -119 -21 hvcurveto
            -108 -19 68 -72 115 hhcurveto
            122 81 80 131 23 hvcurveto
            12 66 rlineto
            return
          </CharString>
          <CharString index="255">
            rmoveto
            12 69 rlineto
            151 hlineto
            -65 -371 rlineto
            105 hlineto
            116 251 callgsubr
            -50 -283 rlineto
            -151 hlineto
            12 71 rlineto
            128 23 return
          </CharString>
          <CharString index="256">
            rmoveto
            -117 -59 73 111 20 -98 callsubr
            return
          </CharString>
          <CharString index="257">
            32 callsubr
            -13 -53 -42 -58 -68 -16 rlinecurve
            -5 2 -5 -5 rlineto
            -1 -9 -10 -1 -10 hhcurveto
            return
          </CharString>
          <CharString index="258">
            -5 callgsubr
            351 -65 callsubr
            -88 hlineto
            -35 -198 129 callsubr
            136 hhcurveto
            131 82 57 callsubr
            return
          </CharString>
          <CharString index="259">
            -142 -25 83 -96 151 hhcurveto
            103 75 49 65 46 hvcurveto
            -61 35 70 -36 98 hhcurveto
            97 76 41 56 47 hvcurveto
            -35 -200 -12 callgsubr
          </CharString>
          <CharString index="260">
            -5 callgsubr
            392 95 callgsubr
            return
          </CharString>
          <CharString index="261">
            39 54 47 155 callgsubr
            return
          </CharString>
          <CharString index="262">
            114 295 callsubr
            157 28 -74 82 return
          </CharString>
          <CharString index="263">
            63 103 18 hvcurveto
            25 return
          </CharString>
          <CharString index="264">
            rmoveto
            -87 -54 58 93 16 hvcurveto
            89 16 78 60 86 hhcurveto
            80 44 -51 -57 3 hvcurveto
            -1 -9 -2 -14 -1 -13 rrcurveto
            -2 0 -1 -1 -2 vhcurveto
            -73 -16 -59 -78 -102 hhcurveto
            return
          </CharString>
          <CharString index="265">
            164 callsubr
            endchar
          </CharString>
          <CharString index="266">
            46 241 callgsubr
            -65 -12 hvcurveto
            -62 return
          </CharString>
          <CharString index="267">
            -68 -17 -93 42 -42 59 -12 rlinecurve
            return
          </CharString>
          <CharString index="268">
            rmoveto
            -117 -58 65 98 18 hvcurveto
            3 vlineto
            126 6 75 68 21 126 18 95 348 callsubr
            -50 -282 rlineto
            1 vlineto
            -106 -18 -92 -74 -108 hhcurveto
            return
          </CharString>
          <CharString index="269">
            rmoveto
            -120 -101 -42 -82 -60 hvcurveto
            -255 228 rlineto
            0 569 vlineto
            -18 -104 rlineto
            return
          </CharString>
          <CharString index="270">
            rlineto
            116 callgsubr
            return
          </CharString>
          <CharString index="271">
            242 callsubr
            140 hlineto
            -71 70 callsubr
            return
          </CharString>
          <CharString index="272">
            308 249 callgsubr
            return
          </CharString>
          <CharString index="273">
            hlineto
            -163 -136 -72 return
          </CharString>
          <CharString index="274">
            302 24 callgsubr
            return
          </CharString>
          <CharString index="275">
            111 callsubr
            262 callsubr
            return
          </CharString>
          <CharString index="276">
            316 callgsubr
            5 25 1 28 -5 27 rrcurveto
            return
          </CharString>
          <CharString index="277">
            -100 callsubr
            119 hlineto
            -66 -380 rlineto
            -150 -27 72 -103 166 hhcurveto
            return
          </CharString>
          <CharString index="278">
            266 callgsubr
            -1 -9 rlineto
            -42 return
          </CharString>
          <CharString index="279">
            hvcurveto
            259 callsubr
            return
          </CharString>
          <CharString index="280">
            241 callsubr
            -74 return
          </CharString>
          <CharString index="281">
            275 -60 callgsubr
            return
          </CharString>
          <CharString index="282">
            hhcurveto
            124 69 83 121 30 hvcurveto
            1 3 1 5 1 6 rrcurveto
            -101 hlineto
            -3 -17 rlineto
            -66 -12 -41 -45 -61 hhcurveto
            -68 -25 50 71 12 hvcurveto
            22 return
          </CharString>
          <CharString index="283">
            42 -21 30 rrcurveto
            return
          </CharString>
          <CharString index="284">
            27 callgsubr
            4 hlineto
            return
          </CharString>
          <CharString index="285">
            309 422 rmoveto
            -53 32 -31 46 11 63 rrcurveto
            52 8 49 47 61 hhcurveto
            67 31 -50 -53 -10 hvcurveto
            -11 -64 -48 -41 -58 -38 -3 -2 rcurveline
            return
          </CharString>
          <CharString index="286">
            188 callgsubr
            endchar
          </CharString>
          <CharString index="287">
            146 callsubr
            -91 -16 -64 -38 -111 hhcurveto
            -269 hlineto
            -23 -129 rlineto
            return
          </CharString>
          <CharString index="288">
            rmoveto
            -19 -108 -85 -12 -77 -41 -50 -68 rlinecurve
            -255 229 rlineto
            0 vlineto
            return
          </CharString>
          <CharString index="289">
            -64 -12 hvcurveto
            -63 -11 184 callgsubr
            return
          </CharString>
          <CharString index="290">
            -119 -21 79 -86 122 hhcurveto
            return
          </CharString>
          <CharString index="291">
            -59 73 111 return
          </CharString>
          <CharString index="292">
            -34 13 -137 hhcurveto
            -45 hlineto
            -12 -68 rlineto
            48 hlineto
            81 44 -5 -158 60 hvcurveto
            73 -77 -30 2 -98 hhcurveto
            -44 hlineto
            -12 -67 rlineto
            46 hlineto
            return
          </CharString>
          <CharString index="293">
            -5 callgsubr
            112 hlineto
            -34 -197 rlineto
            -116 -22 65 -90 128 hhcurveto
            131 76 88 118 21 hvcurveto
            34 197 rlineto
            return
          </CharString>
          <CharString index="294">
            -96 146 hhcurveto
            131 91 78 96 30 hvcurveto
            -101 hlineto
            -43 -19 -50 -43 -72 hhcurveto
            -84 -39 56 75 13 hvcurveto
            74 14 62 58 81 hhcurveto
            return
          </CharString>
          <CharString index="295">
            -23 -129 66 -86 110 -9 235 callgsubr
            return
          </CharString>
          <CharString index="296">
            -20 90 -62 118 6 6 0 6 hhcurveto
            -190 -161 310 callsubr
            254 227 15 13 14 14 12 16 rlinecurve
            endchar
          </CharString>
          <CharString index="297">
            267 callsubr
            -12 hvcurveto
            -63 return
          </CharString>
          <CharString index="298">
            53 callgsubr
            rrcurveto
            return
          </CharString>
          <CharString index="299">
            hlineto
            -19 268 callgsubr
            return
          </CharString>
          <CharString index="300">
            136 24 hvcurveto
            return
          </CharString>
          <CharString index="301">
            117 callsubr
            94 29 -14 -147 68 hvcurveto
            223 callgsubr
            return
          </CharString>
          <CharString index="302">
            110 callsubr
            endchar
          </CharString>
          <CharString index="303">
            -5 callgsubr
            122 hlineto
            -114 -652 rlineto
            return
          </CharString>
          <CharString index="304">
            124 rmoveto
            12 69 rlineto
            return
          </CharString>
          <CharString index="305">
            hlineto
            14 76 rlineto
            0 vlineto
            return
          </CharString>
          <CharString index="306">
            568 208 callgsubr
            return
          </CharString>
          <CharString index="307">
            142 298 rmoveto
            66 12 56 190 callsubr
            -12 -55 -48 -65 -37 callsubr
            return
          </CharString>
          <CharString index="308">
            142 302 rmoveto
            66 13 54 46 68 hhcurveto
            66 40 -47 -64 -12 hvcurveto
            -65 -12 -59 -46 -62 hhcurveto
            -68 -39 45 65 11 hvcurveto
            return
          </CharString>
          <CharString index="309">
            -141 67 710 rmoveto
            -18 -99 rlineto
            350 hlineto
            -374 -611 rlineto
            120 hlineto
            372 624 16 86 rlineto
            endchar
          </CharString>
          <CharString index="310">
            102 callgsubr
            -97 return
          </CharString>
          <CharString index="311">
            rmoveto
            17 94 rlineto
            187 hlineto
            -43 -241 rlineto
            -234 hlineto
            35 34 27 49 11 64 rrcurveto
            430 94 -74 callgsubr
            return
          </CharString>
          <CharString index="312">
            hhcurveto
            -53 hlineto
            -122 -106 -65 -129 -23 hvcurveto
            -122 -21 81 -83 118 hhcurveto
            111 96 67 114 21 hvcurveto
            10 return
          </CharString>
          <CharString index="313">
            124 22 -92 50 -106 hhcurveto
            -44 hlineto
            -49 -41 18 54 9 hvcurveto
            59 11 58 13 49 hhcurveto
            174 hlineto
            33 182 rlineto
            return
          </CharString>
          <CharString index="314">
            hlineto
            98 551 102 callgsubr
            return
          </CharString>
          <CharString index="315">
            hhcurveto
            96 73 39 return
          </CharString>
          <CharString index="316">
            rmoveto
            115 21 -63 127 -176 hhcurveto
            -153 -112 -91 333 callgsubr
            88 -100 155 hhcurveto
            return
          </CharString>
          <CharString index="317">
            -670 rmoveto
            -101 callgsubr
            return
          </CharString>
          <CharString index="318">
            rmoveto
            44 35 27 38 6 hvcurveto
            38 7 -24 29 -44 hhcurveto
            -45 -34 -29 -38 -7 hvcurveto
            -38 -6 24 -27 44 hhcurveto
            endchar
          </CharString>
          <CharString index="319">
            232 callsubr
            13 65 55 84 hhcurveto
            return
          </CharString>
          <CharString index="320">
            247 callgsubr
            -223 hlineto
            return
          </CharString>
          <CharString index="321">
            115 6 callgsubr
            return
          </CharString>
          <CharString index="322">
            115 hhcurveto
            121 81 80 132 23 hvcurveto
            return
          </CharString>
          <CharString index="323">
            -111 hhcurveto
            -13 hlineto
            -5 -17 -5 -18 return
          </CharString>
          <CharString index="324">
            rlineto
            -111 -19 return
          </CharString>
          <CharString index="325">
            191 callgsubr
            -97 -17 -61 -55 -112 hhcurveto
            -105 hlineto
            -36 -210 rlineto
            -125 -22 return
          </CharString>
          <CharString index="326">
            -5 callgsubr
            275 hlineto
            -10 -62 rlineto
            -110 -20 239 callgsubr
            return
          </CharString>
          <CharString index="327">
            rmoveto
            92 16 79 58 87 hhcurveto
            103 36 -77 -74 -14 hvcurveto
            -71 -12 -62 -80 -104 hhcurveto
            -89 -56 58 94 16 hvcurveto
            return
          </CharString>
          <CharString index="328">
            -201 rmoveto
            242 callgsubr
            return
          </CharString>
          <CharString index="329">
            93 callsubr
            endchar
          </CharString>
          <CharString index="330">
            12 -1 12 hhcurveto
            69 104 callgsubr
            return
          </CharString>
          <CharString index="331">
            59 10 hvcurveto
            61 11 51 -37 callgsubr
            return
          </CharString>
          <CharString index="332">
            250 callgsubr
            -216 return
          </CharString>
          <CharString index="333">
            -155 -28 108 -103 151 hhcurveto
            endchar
          </CharString>
          <CharString index="334">
            87 21 122 return
          </CharString>
          <CharString index="335">
            rmoveto
            15 82 rlineto
            -5 -18 -30 -6 -31 hhcurveto
            -58 -51 35 66 12 hvcurveto
            54 9 44 36 68 hhcurveto
            33 hlineto
            return
          </CharString>
          <CharString index="336">
            94 callsubr
            101 295 callsubr
            return
          </CharString>
          <CharString index="337">
            hhcurveto
            118 88 64 59 35 hvcurveto
            -39 -217 rlineto
            endchar
          </CharString>
          <CharString index="338">
            -74 callgsubr
            -721 -100 callsubr
            return
          </CharString>
          <CharString index="339">
            -95 -1 rrcurveto
            -77 320 callsubr
            return
          </CharString>
          <CharString index="340">
            117 21 hvcurveto
            return
          </CharString>
          <CharString index="341">
            -164 -28 109 -77 145 hhcurveto
            27 hlineto
            331 callgsubr
            -49 55 98 19 hvcurveto
            return
          </CharString>
          <CharString index="342">
            hhcurveto
            -122 -105 -83 177 callgsubr
            -145 -25 65 -102 160 hhcurveto
            10 11 0 1 14 hvcurveto
            return
          </CharString>
          <CharString index="343">
            hvcurveto
            55 9 46 44 91 hhcurveto
            53 hlineto
            15 85 rlineto
            -45 hlineto
            -88 -28 40 69 12 hvcurveto
            11 63 rlineto
            return
          </CharString>
          <CharString index="344">
            176 32 callsubr
            return
          </CharString>
          <CharString index="345">
            hvcurveto
            -63 -12 184 callgsubr
            12 hvcurveto
            return
          </CharString>
          <CharString index="346">
            65 21 292 callsubr
            return
          </CharString>
          <CharString index="347">
            -22 -3 -6 -20 hvcurveto
            return
          </CharString>
          <CharString index="348">
            hlineto
            -13 -74 rlineto
            return
          </CharString>
          <CharString index="349">
            hhcurveto
            27 hlineto
            88 callsubr
            return
          </CharString>
          <CharString index="350">
            -315 57 hmoveto
            120 hlineto
            124 706 rlineto
            -226 hlineto
            -19 -107 rlineto
            106 hlineto
            endchar
          </CharString>
          <CharString index="351">
            rmoveto
            97 callsubr
            54 -20 -49 39 -86 hhcurveto
            -67 -61 -25 -44 -45 hvcurveto
            43 -29 -48 26 return
          </CharString>
          <CharString index="352">
            123 175 -61 175 rlineto
            -110 hlineto
            65 -175 -127 -175 rlineto
            endchar
          </CharString>
          <CharString index="353">
            -63 hhcurveto
            -62 -29 47 71 13 hvcurveto
            26 145 rlineto
            return
          </CharString>
          <CharString index="354">
            hhcurveto
            -150 -71 -100 -130 -24 hvcurveto
            -11 -60 rlineto
            return
          </CharString>
          <CharString index="355">
            69 117 138 callgsubr
            return
          </CharString>
          <CharString index="356">
            3 12 hhcurveto
            58 15 -45 -68 -12 hvcurveto
            -16 -89 rlineto
            return
          </CharString>
          <CharString index="357">
            rmoveto
            37 callgsubr
            return
          </CharString>
          <CharString index="358">
            -130 -741 rlineto
            104 hlineto
            130 741 rlineto
            return
          </CharString>
          <CharString index="359">
            206 rlineto
            -104 hlineto
            87 -206 rlineto
            return
          </CharString>
          <CharString index="360">
            hlineto
            66 -8 -42 69 -104 hhcurveto
            -121 return
          </CharString>
          <CharString index="361">
            -167 -28 109 -82 145 hhcurveto
            return
          </CharString>
          <CharString index="362">
            hvcurveto
            -35 -200 rlineto
            return
          </CharString>
          <CharString index="363">
            -105 144 hhcurveto
            return
          </CharString>
          <CharString index="364">
            -56 -84 -15 hvcurveto
            return
          </CharString>
          <CharString index="365">
            -100 callsubr
            endchar
          </CharString>
          <CharString index="366">
            -45 -257 rlineto
            return
          </CharString>
          <CharString index="367">
            199 callgsubr
            -20 288 callsubr
            48 46 82 14 hvcurveto
            return
          </CharString>
          <CharString index="368">
            rrcurveto
            -115 -20 90 -63 118 330 callgsubr
            return
          </CharString>
          <CharString index="369">
            -30 232 callgsubr
            return
          </CharString>
          <CharString index="370">
            -22 callsubr
            -228 hlineto
            -50 -283 rlineto
            return
          </CharString>
          <CharString index="371">
            hhcurveto
            228 168 119 193 34 hvcurveto
            return
          </CharString>
          <CharString index="372">
            -100 callsubr
            367 hlineto
            return
          </CharString>
          <CharString index="373">
            hlineto
            -14 -24 -11 -28 -5 -30 return
          </CharString>
          <CharString index="374">
            45 241 callgsubr
            -64 return
          </CharString>
          <CharString index="375">
            599 652 rmoveto
            return
          </CharString>
          <CharString index="376">
            -92 rlineto
            -1 11 return
          </CharString>
          <CharString index="377">
            -86 122 hhcurveto
            107 99 69 117 20 hvcurveto
            288 callgsubr
            return
          </CharString>
          <CharString index="378">
            208 callgsubr
            539 hlineto
            97 callsubr
            54 -20 -49 39 -86 hhcurveto
            -94 return
          </CharString>
          <CharString index="379">
            hvcurveto
            78 callsubr
            return
          </CharString>
          <CharString index="380">
            77 118 callgsubr
            return
          </CharString>
          <CharString index="381">
            rmoveto
            -53 -37 36 60 11 hvcurveto
            60 return
          </CharString>
          <CharString index="382">
            hlineto
            -14 -78 -17 -94 -49 -46 -84 -11 rlinecurve
            74 -19 -64 58 -110 hhcurveto
            return
          </CharString>
          <CharString index="383">
            160 callsubr
            -1 -2 return
          </CharString>
          <CharString index="384">
            290 callgsubr
            -3 -21 rlineto
            -39 return
          </CharString>
          <CharString index="385">
            56 79 41 hvcurveto
            return
          </CharString>
          <CharString index="386">
            hlineto
            -4 -13 -4 -13 -2 -14 rrcurveto
            307 callsubr
            return
          </CharString>
          <CharString index="387">
            rlineto
            64 12 40 40 52 hhcurveto
            52 24 -34 -46 -9 hvcurveto
            85 hlineto
            95 return
          </CharString>
          <CharString index="388">
            hhcurveto
            442 274 rmoveto
            -82 -61 -38 -53 -37 hvcurveto
            34 194 rlineto
            return
          </CharString>
          <CharString index="389">
            rlineto
            166 hlineto
            return
          </CharString>
          <CharString index="390">
            rmoveto
            66 12 56 293 callgsubr
            -47 -64 -12 hvcurveto
            -63 -11 return
          </CharString>
          <CharString index="391">
            305 301 callgsubr
            return
          </CharString>
          <CharString index="392">
            24 7 34 rrcurveto
            50 9 47 21 52 hhcurveto
            178 hlineto
            endchar
          </CharString>
          <CharString index="393">
            -114 -147 -24 hvcurveto
            -6 -40 rlineto
            return
          </CharString>
          <CharString index="394">
            hlineto
            96 callgsubr
            return
          </CharString>
          <CharString index="395">
            -22 293 callsubr
            72 return
          </CharString>
          <CharString index="396">
            220 rlineto
            256 hlineto
            -42 return
          </CharString>
          <CharString index="397">
            279 rmoveto
            -168 hlineto
            return
          </CharString>
          <CharString index="398">
            hvcurveto
            1 4 125 7 return
          </CharString>
          <CharString index="399">
            121 rlinecurve
            15 80 rlineto
            return
          </CharString>
          <CharString index="400">
            -33 350 callsubr
            return
          </CharString>
          <CharString index="401">
            -48 rmoveto
            -16 -89 rlineto
            return
          </CharString>
          <CharString index="402">
            hlineto
            194 callgsubr
            return
          </CharString>
          <CharString index="403">
            -101 hlineto
            -71 -11 57 callgsubr
            18 callgsubr
            return
          </CharString>
          <CharString index="404">
            -84 hhcurveto
            -147 -114 -106 -157 -28 hvcurveto
            105 hlineto
            106 return
          </CharString>
          <CharString index="405">
            12 callsubr
            endchar
          </CharString>
          <CharString index="406">
            -115 hlineto
            -52 return
          </CharString>
          <CharString index="407">
            hlineto
            -35 -198 rlineto
            -85 hlineto
            -48 -45 -11 -22 -38 hvcurveto
            return
          </CharString>
          <CharString index="408">
            19 -70 -94 -13 144 callsubr
            87 hlineto
            3 18 rlineto
            return
          </CharString>
          <CharString index="409">
            -64 callsubr
            121 -22 callsubr
            -224 hlineto
            -86 return
          </CharString>
          <CharString index="410">
            hhcurveto
            96 73 240 callgsubr
            105 hlineto
            return
          </CharString>
          <CharString index="411">
            173 callgsubr
            114 hlineto
            return
          </CharString>
          <CharString index="412">
            hvcurveto
            -3 -18 rlineto
            88 hlineto
            3 18 return
          </CharString>
          <CharString index="413">
            rlineto
            103 -49 callgsubr
            return
          </CharString>
          <CharString index="414">
            -151 -28 82 -94 134 hhcurveto
            return
          </CharString>
          <CharString index="415">
            348 callsubr
            -52 return
          </CharString>
          <CharString index="416">
            201 35 hvcurveto
            return
          </CharString>
          <CharString index="417">
            rlineto
            116 hlineto
            return
          </CharString>
          <CharString index="418">
            -52 -40 19 52 10 hvcurveto
            60 10 59 13 49 hhcurveto
            return
          </CharString>
          <CharString index="419">
            -25 hvcurveto
            -1 -6 104 -1 1 10 rlineto
            189 34 return
          </CharString>
          <CharString index="420">
            hvcurveto
            -2 -9 -1 -12 1 -10 rrcurveto
            70 hlineto
            -1 5 return
          </CharString>
          <CharString index="421">
            -162 rlineto
            -129 147 rmoveto
            -91 -36 59 74 return
          </CharString>
          <CharString index="422">
            58 9 40 35 48 hhcurveto
            57 16 -45 -68 -12 hvcurveto
            return
          </CharString>
          <CharString index="423">
            324 callgsubr
            94 return
          </CharString>
          <CharString index="424">
            hmoveto
            117 callgsubr
            return
          </CharString>
          <CharString index="425">
            -80 41 -123 hhcurveto
            -259 hlineto
            19 109 rlineto
            return
          </CharString>
          <CharString index="426">
            hlineto
            -22 -28 -15 -35 -7 -41 rrcurveto
            -118 -21 78 return
          </CharString>
          <CharString index="427">
            -57 45 82 15 hvcurveto
            76 return
          </CharString>
          <CharString index="428">
            -97 rlineto
            54 hlineto
            return
          </CharString>
          <CharString index="429">
            hvcurveto
            -32 12 -18 return
          </CharString>
          <CharString index="430">
            -740 rlineto
            endchar
          </CharString>
          <CharString index="431">
            -10 -1 -8 hhcurveto
            -92 -41 59 96 17 hvcurveto
            81 return
          </CharString>
          <CharString index="432">
            hlineto
            -150 -128 -79 -154 -27 hvcurveto
            -17 return
          </CharString>
          <CharString index="433">
            216 callsubr
            -3 -16 return
          </CharString>
          <CharString index="434">
            341 callgsubr
            -73 return
          </CharString>
          <CharString index="435">
            rmoveto
            -102 hlineto
            -81 -13 -47 -51 -69 hhcurveto
            -79 -24 return
          </CharString>
          <CharString index="436">
            rmoveto
            -99 -47 63 91 16 hvcurveto
            14 83 99 4 return
          </CharString>
          <CharString index="437">
            hlineto
            291 244 -43 -244 rlineto
            endchar
          </CharString>
          <CharString index="438">
            -48 61 100 17 hvcurveto
            107 19 return
          </CharString>
          <CharString index="439">
            hlineto
            -9 -19 -7 -21 -4 -23 return
          </CharString>
          <CharString index="440">
            hhcurveto
            87 61 38 57 42 hvcurveto
            return
          </CharString>
          <CharString index="441">
            14 80 308 callsubr
            return
          </CharString>
          <CharString index="442">
            188 rmoveto
            -79 -54 35 72 return
          </CharString>
          <CharString index="443">
            -29 -37 -7 hvcurveto
            -37 return
          </CharString>
          <CharString index="444">
            47 46 82 15 hvcurveto
            return
          </CharString>
          <CharString index="445">
            hlineto
            16 93 rlineto
            return
          </CharString>
          <CharString index="446">
            rlineto
            92 hlineto
            101 572 rlineto
            -91 hlineto
            -76 return
          </CharString>
          <CharString index="447">
            33 51 9 hvcurveto
            49 9 35 34 44 hhcurveto
            return
          </CharString>
          <CharString index="448">
            29 -38 hhcurveto
            -37 -34 336 callsubr
            return
          </CharString>
          <CharString index="449">
            55 293 callgsubr
            -47 -64 -12 hvcurveto
            return
          </CharString>
          <CharString index="450">
            hvcurveto
            -3 -21 rlineto
            87 hlineto
            4 21 rlineto
            95 return
          </CharString>
          <CharString index="451">
            -43 -55 -10 hvcurveto
            -107 -19 -101 -26 -103 hhcurveto
            return
          </CharString>
          <CharString index="452" raw="1">
            1ffb0e86 1df70e06 0b 
          </CharString>
          <CharString index="453">
            rmoveto
            532 hlineto
            18 104 rlineto
            -532 hlineto
            return
          </CharString>
          <CharString index="454">
            29 37 6 hvcurveto
            endchar
          </CharString>
          <CharString index="455">
            rcurveline
            185 hlineto
            return
          </CharString>
          <CharString index="456">
            -334 rmoveto
            -91 return
          </CharString>
          <CharString index="457">
            hhcurveto
            -8 -46 rlineto
            return
          </CharString>
          <CharString index="458">
            78 -114 hhcurveto
            return
          </CharString>
        <CharString name=".notdef">
          -122 0 vmoveto
          500 700 -500 hlineto
          250 -305 rmoveto
          -170 255 rlineto
          340 hlineto
          -140 -300 rmoveto
          170 255 rlineto
          -510 vlineto
          -370 -45 rmoveto
          170 255 170 -255 rlineto
          -370 555 rmoveto
          170 -255 -170 -255 rlineto
          endchar
        </CharString>
        <CharString name="A">
          60 483 -29 callsubr
          -16 88 99 callgsubr
        </CharString>
        <CharString name="AE">
          285 510 606 87 callgsubr
        </CharString>
        <CharString name="Aacute">
          60 484 -29 callsubr
          -95 676 rmoveto
          -14 -80 241 113 16 89 rlineto
          -164 -710 99 callgsubr
        </CharString>
        <CharString name="Abreve">
          60 486 -29 callsubr
          135 761 -79 callsubr
          -151 -673 99 callgsubr
        </CharString>
        <CharString name="Acircumflex">
          60 486 -29 callsubr
          115 687 -24 callgsubr
          -117 -521 99 callgsubr
        </CharString>
        <CharString name="Adieresis">
          60 489 -29 callsubr
          -127 626 -99 callgsubr
          -66 -538 99 callgsubr
        </CharString>
        <CharString name="Agrave">
          60 483 -29 callsubr
          -188 709 rmoveto
          201 -113 14 80 -199 122 rlineto
          156 -710 99 callgsubr
        </CharString>
        <CharString name="Amacron">
          60 490 -29 callsubr
          -218 644 rmoveto
          366 hlineto
          14 78 rlineto
          -366 hlineto
          188 -634 99 callgsubr
        </CharString>
        <CharString name="Aogonek">
          60 -30 hmoveto
          121 hlineto
          82 153 rlineto
          297 hlineto
          26 -150 -61 -16 -32 -37 -7 -46 rlinecurve
          -73 -13 53 -35 72 hhcurveto
          115 hlineto
          11 64 rlineto
          -104 hlineto
          -39 -21 18 29 6 hvcurveto
          30 5 27 17 39 hhcurveto
          62 hlineto
          9 53 -135 688 rlineto
          -131 hlineto
          102 -454 rmoveto
          -234 hlineto
          175 329 rlineto
          endchar
        </CharString>
        <CharString name="Aring">
          60 482 -29 callsubr
          29 716 rmoveto
          -37 -6 -30 -23 -33 hhcurveto
          -33 -22 23 37 7 hvcurveto
          38 7 29 23 33 hhcurveto
          34 21 -23 -38 -7 hvcurveto
          -168 hmoveto
          -68 -12 42 -41 60 hhcurveto
          61 57 41 68 11 hvcurveto
          69 12 -42 41 -60 hhcurveto
          -60 -57 -41 -69 -12 hvcurveto
          123 -628 99 callgsubr
        </CharString>
        <CharString name="Atilde">
          60 490 -29 callsubr
          -207 610 -87 callsubr
          191 -522 99 callgsubr
        </CharString>
        <CharString name="B">
          -4 437 206 rmoveto
          -71 -12 -57 -41 -86 hhcurveto
          -144 hlineto
          40 225 rlineto
          143 hlineto
          86 42 -43 -70 -12 hvcurveto
          38 302 rmoveto
          -66 -12 -49 -40 -82 hhcurveto
          -140 hlineto
          37 211 rlineto
          137 hlineto
          89 31 -42 -63 -11 hvcurveto
          77 -317 rmoveto
          15 85 -44 70 -84 18 74 17 66 54 16 93 rrcurveto
          109 19 -63 69 -144 hhcurveto
          -276 128 callgsubr
          281 hlineto
          153 91 77 114 20 hvcurveto
          endchar
        </CharString>
        <CharString name="C">
          139 46 -42 callsubr
          endchar
        </CharString>
        <CharString name="CR">
          -388 endchar
        </CharString>
        <CharString name="Cacute">
          139 47 -42 callsubr
          356 476 -43 callsubr
        </CharString>
        <CharString name="Ccaron">
          139 50 -42 callsubr
          422 484 -26 callgsubr
        </CharString>
        <CharString name="Ccedilla">
          139 56 353 rmoveto
          -36 -204 101 -145 191 -10 -20 -110 rcurveline
          22 callgsubr
          9 57 rcurveline
          152 17 112 92 59 132 rrcurveto
          -120 hlineto
          -81 -46 -83 -57 -108 hhcurveto
          -125 -78 97 156 28 hvcurveto
          157 27 112 97 125 hhcurveto
          108 63 -57 -82 17 hvcurveto
          120 hlineto
          147 -12 -98 98 -178 hhcurveto
          -203 -161 -149 -211 -37 hvcurveto
          endchar
        </CharString>
        <CharString name="Cdotaccent">
          139 53 -42 callsubr
          411 426 -53 callgsubr
        </CharString>
        <CharString name="D">
          99 367 92 callsubr
          endchar
        </CharString>
        <CharString name="Dcaron">
          99 366 92 callsubr
          208 734 -26 callgsubr
        </CharString>
        <CharString name="Dcroat">
          120 401 58 callgsubr
        </CharString>
        <CharString name="E">
          -107 535 -68 callgsubr
          endchar
        </CharString>
        <CharString name="Eacute">
          -107 531 -68 callgsubr
          -227 215 -43 callsubr
        </CharString>
        <CharString name="Ebreve">
          -107 534 -68 callgsubr
          1 300 -79 callsubr
          endchar
        </CharString>
        <CharString name="Ecaron">
          -107 534 -68 callgsubr
          -161 223 -26 callgsubr
        </CharString>
        <CharString name="Ecircumflex">
          -107 534 -68 callgsubr
          -18 226 -24 callgsubr
          endchar
        </CharString>
        <CharString name="Edieresis">
          -107 536 -68 callgsubr
          -259 165 -99 callgsubr
          endchar
        </CharString>
        <CharString name="Edotaccent">
          -107 536 -68 callgsubr
          -171 165 -53 callgsubr
        </CharString>
        <CharString name="Egrave">
          -107 531 -68 callgsubr
          -322 248 8 callsubr
        </CharString>
        <CharString name="Emacron">
          -107 538 -68 callgsubr
          -351 183 65 callsubr
        </CharString>
        <CharString name="Eogonek">
          -107 532 706 rmoveto
          -404 128 callgsubr
          212 hlineto
          -11 -14 -8 -18 -4 -21 rrcurveto
          -75 -13 53 -37 72 hhcurveto
          115 hlineto
          66 callsubr
          1 7 rlineto
          1 hlineto
          7 38 2 13 rlineto
          0 vlineto
          7 42 rlineto
          -289 hlineto
          38 219 rlineto
          259 -8 callsubr
          -259 hlineto
          37 214 rlineto
          290 hlineto
          endchar
        </CharString>
        <CharString name="Eth">
          120 388 58 callgsubr
        </CharString>
        <CharString name="Euro">
          193 99 353 rmoveto
          -3 -16 -2 -16 -1 -16 rrcurveto
          -84 hlineto
          -10 -56 rlineto
          94 hlineto
          -154 10 104 -101 168 hhcurveto
          177 132 98 146 65 hvcurveto
          -121 hlineto
          -81 -46 -82 -57 -109 hhcurveto
          -94 -67 55 94 -16 hvcurveto
          222 hlineto
          10 56 rlineto
          -235 hlineto
          16 2 15 3 17 vhcurveto
          2 14 4 13 3 13 rrcurveto
          237 hlineto
          10 57 rlineto
          -225 hlineto
          99 48 88 58 97 hhcurveto
          109 62 -57 -82 17 hvcurveto
          121 hlineto
          147 -13 -98 98 -177 hhcurveto
          -171 -141 -105 -158 -63 hvcurveto
          -92 hlineto
          -9 -57 rlineto
          83 hlineto
          -4 -13 -3 -13 -2 -14 rrcurveto
          endchar
        </CharString>
        <CharString name="F">
          -103 7 hmoveto
          114 hlineto
          54 307 rlineto
          250 -8 callsubr
          -250 hlineto
          38 219 rlineto
          303 hlineto
          16 92 rlineto
          -417 hlineto
          endchar
        </CharString>
        <CharString name="G">
          151 46 358 -51 callsubr
          endchar
        </CharString>
        <CharString name="Gbreve">
          151 45 358 -51 callsubr
          591 556 -79 callsubr
          endchar
        </CharString>
        <CharString name="Gdotaccent">
          151 48 358 -51 callsubr
          418 421 -53 callgsubr
        </CharString>
        <CharString name="H">
          77 453 hmoveto
          115 hlineto
          124 706 rlineto
          299 callsubr
          -296 rlineto
          -332 hlineto
          52 296 rlineto
          -114 hlineto
          304 callsubr
          56 317 rlineto
          332 hlineto
          endchar
        </CharString>
        <CharString name="I">
          -370 7 103 callsubr
          endchar
        </CharString>
        <CharString name="Iacute">
          -370 8 103 callsubr
          16 123 -43 callsubr
        </CharString>
        <CharString name="Icircumflex">
          -370 10 103 callsubr
          226 134 -24 callgsubr
          endchar
        </CharString>
        <CharString name="Idieresis">
          -370 13 103 callsubr
          -16 73 -99 callgsubr
          endchar
        </CharString>
        <CharString name="Idotaccent">
          -370 13 103 callsubr
          73 73 -53 callgsubr
        </CharString>
        <CharString name="Igrave">
          -370 8 103 callsubr
          -79 156 8 callsubr
        </CharString>
        <CharString name="Imacron">
          -370 15 103 callsubr
          -108 91 65 callsubr
        </CharString>
        <CharString name="Iogonek">
          -370 127 221 callsubr
          -1 hlineto
          121 691 15 callsubr
          -122 -694 -53 -10 -45 -33 -10 -58 rlinecurve
          -75 -13 53 -37 72 hhcurveto
          endchar
        </CharString>
        <CharString name="Itilde">
          -370 14 103 callsubr
          -96 57 -87 callsubr
          endchar
        </CharString>
        <CharString name="J">
          -119 297 194 rmoveto
          -53 -9 -32 -44 -67 hhcurveto
          -70 -21 48 74 13 309 callgsubr
          -146 -26 70 -80 134 hhcurveto
          126 87 75 126 23 hvcurveto
          90 512 15 callsubr
          endchar
        </CharString>
        <CharString name="K">
          -5 400 hmoveto
          149 callgsubr
        </CharString>
        <CharString name="L">
          -175 131 706 rmoveto
          89 callgsubr
          endchar
        </CharString>
        <CharString name="Lacute">
          -175 127 706 rmoveto
          89 callgsubr
          -51 123 -43 callsubr
        </CharString>
        <CharString name="Lcaron">
          -141 358 706 328 callgsubr
          -18 -19 -34 hhcurveto
          -9 -48 rlineto
          74 47 45 79 14 hvcurveto
          5 30 2 33 -4 37 rrcurveto
          -332 hmoveto
          89 callgsubr
          endchar
        </CharString>
        <CharString name="Ldot">
          -175 129 706 rmoveto
          89 callgsubr
          86 -409 -53 callgsubr
        </CharString>
        <CharString name="Lslash">
          -157 148 706 rmoveto
          -52 -296 -81 -28 -20 -113 81 28 -52 -297 rlineto
          359 hlineto
          15 89 rlineto
          -244 hlineto
          44 250 129 45 20 113 -129 -45 45 254 rlineto
          endchar
        </CharString>
        <CharString name="M">
          247 8 hmoveto
          115 hlineto
          91 520 110 -520 rlineto
          100 hlineto
          293 521 -92 -521 134 callgsubr
          122 695 rlineto
          -138 hlineto
          -324 -555 -132 555 rlineto
          -139 hlineto
          endchar
        </CharString>
        <CharString name="N">
          87 588 705 15 callgsubr
          endchar
        </CharString>
        <CharString name="NULL">
          -622 endchar
        </CharString>
        <CharString name="Nacute">
          87 584 705 15 callgsubr
          -327 124 -43 callsubr
        </CharString>
        <CharString name="Ncaron">
          87 587 705 15 callgsubr
          -261 132 -26 callgsubr
        </CharString>
        <CharString name="Ntilde">
          87 590 705 15 callgsubr
          -439 58 -87 callsubr
          endchar
        </CharString>
        <CharString name="O">
          161 47 -95 callsubr
          endchar
        </CharString>
        <CharString name="OE">
          458 166 357 rmoveto
          156 27 114 96 134 hhcurveto
          135 79 -98 -159 -27 hvcurveto
          -158 -28 -114 -98 -135 hhcurveto
          -134 -79 100 161 28 hvcurveto
          917 257 rmoveto
          16 92 rlineto
          -404 hlineto
          -25 -146 rlineto
          96 -22 -89 59 -112 hhcurveto
          -206 -158 -146 -207 -37 hvcurveto
          -218 -38 117 -154 199 hhcurveto
          110 2 108 58 54 95 -25 -145 rcurveline
          404 338 callsubr
          -289 hlineto
          39 219 rlineto
          259 -22 callsubr
          -259 hlineto
          38 214 rlineto
          endchar
        </CharString>
        <CharString name="Oacute">
          161 40 -95 callsubr
          -208 480 -43 callsubr
        </CharString>
        <CharString name="Ocircumflex">
          161 43 -95 callsubr
          1 491 -24 callgsubr
          endchar
        </CharString>
        <CharString name="Odieresis">
          161 45 -95 callsubr
          -239 430 -99 callgsubr
          endchar
        </CharString>
        <CharString name="Ograve">
          161 44 -95 callsubr
          -302 513 8 callsubr
        </CharString>
        <CharString name="Ohungarumlaut">
          161 43 -95 callsubr
          -5 577 72 callgsubr
        </CharString>
        <CharString name="Omacron">
          161 50 -95 callsubr
          -330 448 65 callsubr
        </CharString>
        <CharString name="Oslash">
          168 47 373 rmoveto
          -19 -108 17 -92 47 -67 -114 -106 rcurveline
          68 hlineto
          76 71 rlineto
          -50 52 75 -29 93 hhcurveto
          203 156 142 309 callsubr
          18 106 -16 90 -46 67 119 110 rcurveline
          -66 hlineto
          -82 -76 rlineto
          53 -52 -76 30 -94 hhcurveto
          -202 -157 -141 -201 -35 hvcurveto
          112 -14 rmoveto
          154 28 112 96 133 hhcurveto
          61 50 -20 -35 35 hvcurveto
          -397 -367 -25 44 -9 58 12 70 rlinecurve
          193 -260 rmoveto
          -60 -49 18 34 -34 hvcurveto
          396 366 23 -43 8 -57 -12 -68 rlinecurve
          -154 -27 -113 -96 -132 hhcurveto
          endchar
        </CharString>
        <CharString name="Otilde">
          161 47 -95 callsubr
          -321 414 -87 callsubr
          endchar
        </CharString>
        <CharString name="P">
          -37 186 367 rmoveto
          43 245 112 callgsubr
          103 29 -47 -76 -13 hvcurveto
          -74 -13 -46 -48 -103 hhcurveto
          279 122 rmoveto
          129 22 -62 88 -168 hhcurveto
          -240 hlineto
          304 callsubr
          49 274 322 callgsubr
          161 99 84 131 24 hvcurveto
          endchar
        </CharString>
        <CharString name="Q">
          161 625 349 rmoveto
          -154 -27 -113 -96 -132 hhcurveto
          -140 -80 100 160 27 hvcurveto
          154 28 112 96 133 hhcurveto
          138 82 -100 -160 -28 hvcurveto
          -577 24 rmoveto
          -223 -40 116 -158 219 hhcurveto
          29 28 3 5 27 hvcurveto
          98 -133 rlineto
          142 hlineto
          -137 171 108 57 76 107 23 133 rlinecurve
          223 39 -119 157 -215 hhcurveto
          -202 -157 -141 -201 -35 hvcurveto
          endchar
        </CharString>
        <CharString name="R">
          -24 471 9 callsubr
          endchar
        </CharString>
        <CharString name="Racute">
          -24 467 9 callsubr
          -41 123 -43 callsubr
        </CharString>
        <CharString name="Rcaron">
          -24 470 9 callsubr
          25 131 -26 callgsubr
        </CharString>
        <CharString name="S">
          -46 199 540 -46 callsubr
          endchar
        </CharString>
        <CharString name="Sacute">
          -46 195 540 -46 callsubr
          111 289 -43 callsubr
        </CharString>
        <CharString name="Scaron">
          -46 198 540 -46 callsubr
          177 297 -26 callgsubr
        </CharString>
        <CharString name="T">
          -83 61 614 121 callgsubr
          endchar
        </CharString>
        <CharString name="Tcaron">
          -83 60 614 121 callgsubr
          280 131 -26 callgsubr
        </CharString>
        <CharString name="Thorn">
          -37 162 232 rmoveto
          44 244 rlineto
          113 hlineto
          103 29 -46 -77 -13 hvcurveto
          -73 -13 -46 -48 -103 hhcurveto
          278 121 rmoveto
          127 23 -63 86 -168 hhcurveto
          -126 hlineto
          25 140 rlineto
          -114 hlineto
          304 callsubr
          26 143 322 callgsubr
          161 99 82 128 22 hvcurveto
          endchar
        </CharString>
        <CharString name="U">
          49 53 -85 callsubr
          endchar
        </CharString>
        <CharString name="Uacute">
          49 50 -85 callsubr
          229 123 -43 callsubr
        </CharString>
        <CharString name="Ubreve">
          49 52 -85 callsubr
          459 208 -79 callsubr
          endchar
        </CharString>
        <CharString name="Ucircumflex">
          49 52 -85 callsubr
          439 134 -24 callgsubr
          endchar
        </CharString>
        <CharString name="Udieresis">
          49 55 -85 callsubr
          197 73 -99 callgsubr
          endchar
        </CharString>
        <CharString name="Ugrave">
          49 50 -85 callsubr
          134 156 8 callsubr
        </CharString>
        <CharString name="Uhungarumlaut">
          49 52 -85 callsubr
          405 220 72 callgsubr
        </CharString>
        <CharString name="Umacron">
          49 56 -85 callsubr
          107 91 65 callsubr
        </CharString>
        <CharString name="Uogonek">
          49 55 287 rmoveto
          -30 -175 80 -93 117 -21 -18 -7 -14 -20 -4 -21 rrcurveto
          -70 -12 47 -40 69 hhcurveto
          118 hlineto
          12 63 rlineto
          -99 hlineto
          -40 -20 18 29 5 hvcurveto
          5 27 22 18 40 6 121 19 114 88 31 179 74 419 rcurveline
          -115 hlineto
          -74 -419 rlineto
          -139 -24 -76 -47 -89 hhcurveto
          -97 -51 57 129 23 hvcurveto
          74 96 callsubr
          endchar
        </CharString>
        <CharString name="Uring">
          49 47 -85 callsubr
          186 163 41 callsubr
        </CharString>
        <CharString name="Utilde">
          49 56 -85 callsubr
          117 57 -87 callsubr
          endchar
        </CharString>
        <CharString name="V">
          65 208 hmoveto
          146 hlineto
          379 706 rlineto
          -124 hlineto
          -307 -584 -100 584 rlineto
          -124 hlineto
          endchar
        </CharString>
        <CharString name="W">
          374 147 -9 callgsubr
          endchar
        </CharString>
        <CharString name="Wacute">
          374 143 -9 callgsubr
          424 123 -43 callsubr
        </CharString>
        <CharString name="Wcircumflex">
          374 146 -9 callgsubr
          634 134 -24 callgsubr
          endchar
        </CharString>
        <CharString name="Wdieresis">
          374 149 -9 callgsubr
          392 73 -99 callgsubr
          endchar
        </CharString>
        <CharString name="Wgrave">
          374 143 -9 callgsubr
          330 156 8 callsubr
        </CharString>
        <CharString name="X">
          2 410 hmoveto
          136 hlineto
          -165 352 280 354 rlineto
          -131 hlineto
          -195 -256 -121 256 rlineto
          -136 hlineto
          162 -345 -281 -361 rlineto
          131 hlineto
          197 262 rlineto
          endchar
        </CharString>
        <CharString name="Y">
          -4 235 3 callsubr
          endchar
        </CharString>
        <CharString name="Yacute">
          -4 231 3 callsubr
          252 123 -43 callsubr
        </CharString>
        <CharString name="Ycircumflex">
          -4 234 3 callsubr
          461 134 -24 callgsubr
          endchar
        </CharString>
        <CharString name="Ydieresis">
          -4 236 3 callsubr
          221 73 -99 callgsubr
          endchar
        </CharString>
        <CharString name="Ygrave">
          -4 231 3 callsubr
          157 156 8 callsubr
        </CharString>
        <CharString name="Z">
          -68 569 52 callgsubr
          endchar
        </CharString>
        <CharString name="Zacute">
          -68 565 52 callgsubr
          -256 212 -43 callsubr
        </CharString>
        <CharString name="Zcaron">
          -68 568 52 callgsubr
          -190 220 -26 callgsubr
        </CharString>
        <CharString name="Zdotaccent">
          -68 570 52 callgsubr
          -200 162 -53 callgsubr
        </CharString>
        <CharString name="a">
          55 43 -95 callgsubr
          endchar
        </CharString>
        <CharString name="aacute">
          54 45 -95 callgsubr
          -176 398 -43 callsubr
        </CharString>
        <CharString name="abreve">
          54 48 -95 callgsubr
          53 483 -79 callsubr
          endchar
        </CharString>
        <CharString name="acircumflex">
          54 38 -95 callgsubr
          34 409 -24 callgsubr
          endchar
        </CharString>
        <CharString name="acute">
          -349 82 674 -43 callsubr
        </CharString>
        <CharString name="adieresis">
          54 50 -95 callgsubr
          -208 348 -99 callgsubr
          endchar
        </CharString>
        <CharString name="ae">
          476 812 -5 callsubr
          endchar
        </CharString>
        <CharString name="agrave">
          54 45 -95 callgsubr
          -271 431 8 callsubr
        </CharString>
        <CharString name="amacron">
          54 43 -95 callgsubr
          -300 366 65 callsubr
        </CharString>
        <CharString name="ampersand">
          63 372 110 rmoveto
          10 15 7 13 5 13 107 -151 rcurveline
          117 hlineto
          -289 447 -20 30 -14 24 7 40 rlinecurve
          40 7 34 36 54 hhcurveto
          55 26 -34 -56 -8 hvcurveto
          -1 -10 -2 -10 -2 -13 rrcurveto
          107 hlineto
          6 23 3 25 -3 23 rrcurveto
          76 -40 72 -126 -125 -77 -79 -82 -14 vhcurveto
          -10 -54 17 -35 20 -35 4 -7 3 -7 4 -6 rrcurveto
          -2 -3 0 -3 hhcurveto
          -99 -97 -74 -129 -23 hvcurveto
          -124 -22 71 -88 130 hhcurveto
          85 71 48 69 30 hvcurveto
          -265 98 rmoveto
          75 13 53 38 61 hhcurveto
          62 53 -50 -70 -13 hvcurveto
          -65 -11 -55 -46 -66 hhcurveto
          -64 -46 42 76 13 hvcurveto
          endchar
        </CharString>
        <CharString name="aogonek">
          54 48 285 rmoveto
          -182 -32 83 -110 148 hhcurveto
          103 82 278 callsubr
          -21 -116 -54 -9 -46 -33 -10 -59 rlinecurve
          -75 -13 53 -37 72 hhcurveto
          115 hlineto
          66 callsubr
          8 43 rlineto
          1 -85 callgsubr
          endchar
        </CharString>
        <CharString name="approxequal">
          -70 2 175 75 callgsubr
          39 222 75 callgsubr
          endchar
        </CharString>
        <CharString name="aring">
          54 34 -95 callgsubr
          -220 438 41 callsubr
        </CharString>
        <CharString name="asciicircum">
          27 455 168 rmoveto
          114 hlineto
          -143 528 rlineto
          -109 hlineto
          -330 -528 112 callgsubr
          247 394 rlineto
          endchar
        </CharString>
        <CharString name="asciitilde">
          -69 16 233 75 callgsubr
          endchar
        </CharString>
        <CharString name="asterisk">
          -131 330 736 rmoveto
          -94 hlineto
          -4 -146 -101 90 -61 -81 128 -50 -146 -51 33 -85 132 93 -46 -146 rlineto
          93 hlineto
          4 146 97 -91 61 83 -128 50 146 51 -30 80 -131 -89 rlineto
          endchar
        </CharString>
        <CharString name="at">
          557 747 299 rmoveto
          -134 -29 -97 -74 -90 hhcurveto
          -85 -48 63 103 23 hvcurveto
          126 26 90 76 95 hhcurveto
          98 39 -59 -101 -22 hvcurveto
          -436 -44 rmoveto
          -158 -38 70 -106 132 hhcurveto
          101 76 51 81 58 hvcurveto
          -98 -17 55 -34 79 hhcurveto
          142 151 151 309 callsubr
          281 49 -151 174 -313 hhcurveto
          -348 -293 -233 -335 -59 hvcurveto
          -55 -313 159 -173 327 -5 38 95 rcurveline
          -274 1 -128 138 45 257 rrcurveto
          264 46 205 210 304 hhcurveto
          264 105 -148 -217 -38 hvcurveto
          -161 -29 -84 -87 -73 hhcurveto
          -40 -19 18 62 21 hvcurveto
          40 121 rlineto
          156 50 -71 112 -164 hhcurveto
          -166 -152 -127 -178 -40 hvcurveto
          endchar
        </CharString>
        <CharString name="atilde">
          54 51 -95 callgsubr
          -289 332 -87 callsubr
          endchar
        </CharString>
        <CharString name="b">
          54 148 128 rmoveto
          -79 14 61 -56 103 hhcurveto
          143 125 106 177 31 303 callgsubr
          -41 hvcurveto
          56 317 15 callsubr
          -131 -740 112 callgsubr
          48 276 rmoveto
          111 20 84 302 callgsubr
          -80 -67 -100 hhcurveto
          -96 -60 70 112 20 hvcurveto
          endchar
        </CharString>
        <CharString name="backslash">
          42 321 944 rmoveto
          -112 hlineto
          103 -1120 rlineto
          110 hlineto
          endchar
        </CharString>
        <CharString name="bar">
          -398 135 802 rmoveto
          -161 -915 134 callgsubr
          161 915 rlineto
          endchar
        </CharString>
        <CharString name="braceleft">
          -226 144 373 rmoveto
          83 17 44 55 13 75 12 67 -13 48 14 84 22 126 81 76 67 30 2 10 rcurveline
          -118 hlineto
          -37 -18 -105 -72 -28 -157 -13 -77 12 -56 -11 -64 -8 -45 -24 -59 -95 -18 -7 -46 rcurveline
          86 -18 4 -59 -8 -45 -11 -64 -32 -56 -13 -77 -29 -157 80 -72 31 -18 rrcurveto
          118 hlineto
          1 10 -56 30 -53 76 22 126 rlinecurve
          15 84 30 48 12 67 13 75 -25 56 -76 16 rrcurveto
          endchar
        </CharString>
        <CharString name="braceright">
          -232 259 371 rmoveto
          -82 -16 -45 -52 -12 -70 -12 -67 14 -47 -15 -85 -21 -121 -83 -90 -67 -30 -2 -10 rcurveline
          117 hlineto
          37 18 105 72 28 157 14 77 -13 56 11 64 8 45 27 63 92 14 7 46 rcurveline
          -86 15 -4 62 8 45 11 64 32 56 14 77 28 157 -80 72 -31 18 rrcurveto
          -117 hlineto
          -2 -10 57 -30 50 -90 -21 -121 rlinecurve
          -15 -84 -30 -48 -12 -67 -12 -70 26 -51 76 -17 rrcurveto
          endchar
        </CharString>
        <CharString name="bracketleft">
          -255 -9 -176 rmoveto
          229 hlineto
          17 94 rlineto
          -121 hlineto
          164 933 rlineto
          121 hlineto
          17 93 rlineto
          -229 hlineto
          endchar
        </CharString>
        <CharString name="bracketright">
          -257 375 944 rmoveto
          -230 hlineto
          -16 -93 rlineto
          121 hlineto
          -164 -933 rlineto
          -122 hlineto
          -16 -94 rlineto
          229 hlineto
          endchar
        </CharString>
        <CharString name="breve">
          -269 400 759 -79 callsubr
          endchar
        </CharString>
        <CharString name="brokenbar">
          -318 82 275 rmoveto
          -68 -388 134 callgsubr
          68 388 rlineto
          24 139 rmoveto
          69 388 102 callgsubr
          -68 -388 rlineto
          endchar
        </CharString>
        <CharString name="bullet">
          -234 171 203 rmoveto
          73 67 57 73 14 hvcurveto
          74 13 -47 58 -74 hhcurveto
          -73 -68 -58 -74 -13 hvcurveto
          -73 -13 48 -57 73 hhcurveto
          endchar
        </CharString>
        <CharString name="c">
          0 42 -30 callsubr
          endchar
        </CharString>
        <CharString name="cacute">
          -2 39 -30 callsubr
          261 389 -43 callsubr
        </CharString>
        <CharString name="caron">
          -284 229 682 -26 callgsubr
        </CharString>
        <CharString name="ccaron">
          -2 42 -30 callsubr
          327 397 -26 callgsubr
        </CharString>
        <CharString name="ccedilla">
          -2 46 285 rmoveto
          -30 -168 80 -107 138 -15 -20 -111 rcurveline
          22 callgsubr
          9 55 rcurveline
          126 12 99 79 41 118 rrcurveto
          13 callsubr
          endchar
        </CharString>
        <CharString name="cdotaccent">
          -2 44 -30 callsubr
          318 339 -53 callgsubr
        </CharString>
        <CharString name="cedilla">
          -329 163 7 rmoveto
          -70 hlineto
          -22 -123 rlineto
          22 callgsubr
          rrcurveto
          endchar
        </CharString>
        <CharString name="cent">
          -38 534 209 rmoveto
          -106 hlineto
          -68 -24 -64 -39 -67 hhcurveto
          -82 -58 52 108 19 hvcurveto
          108 19 76 53 82 hhcurveto
          67 49 -38 -70 2 hvcurveto
          106 hlineto
          8 118 -77 74 -117 8 16 92 rcurveline
          -54 hlineto
          -16 -92 -138 -12 -107 -90 -26 -151 rlinecurve
          -27 -150 76 -91 133 -12 -17 -97 rcurveline
          54 hlineto
          17 97 120 8 102 74 34 118 rlinecurve
          endchar
        </CharString>
        <CharString name="circumflex">
          -284 372 685 -24 callgsubr
          endchar
        </CharString>
        <CharString name="colon">
          -406 -3 hmoveto
          130 hlineto
          22 166 callgsubr
          53 298 rmoveto
          130 hlineto
          22 166 callgsubr
          endchar
        </CharString>
        <CharString name="comma">
          -429 35 78 108 callgsubr
        </CharString>
        <CharString name="copyright">
          166 742 355 rmoveto
          -209 -36 -165 -148 -209 hhcurveto
          -207 -116 148 209 37 hvcurveto
          209 37 166 146 208 hhcurveto
          207 115 -146 -209 -37 hvcurveto
          -653 hmoveto
          -185 -33 94 -132 188 hhcurveto
          187 141 132 185 33 hvcurveto
          186 33 -94 129 -187 hhcurveto
          -188 -141 -129 -186 -33 hvcurveto
          89 hmoveto
          -148 -26 82 -83 123 hhcurveto
          99 97 61 106 41 hvcurveto
          -98 hlineto
          -56 -27 -49 -32 -53 hhcurveto
          -66 -50 50 101 18 hvcurveto
          102 18 66 50 67 hhcurveto
          52 40 -33 -55 7 hvcurveto
          97 hlineto
          106 -3 -76 60 -98 hhcurveto
          -124 -111 -83 -146 -26 hvcurveto
          endchar
        </CharString>
        <CharString name="currency">
          -73 179 377 rmoveto
          71 13 49 38 53 hhcurveto
          51 39 -38 -71 -12 hvcurveto
          -71 -13 -53 -37 -50 hhcurveto
          -53 -37 37 71 13 hvcurveto
          332 170 rmoveto
          -37 45 -71 -61 rlineto
          16 -27 -33 8 -37 hhcurveto
          -38 -36 -9 -15 -32 hvcurveto
          -51 61 -53 -45 48 -58 -28 -29 -19 -37 -8 -45 rlinecurve
          -8 -44 6 -38 17 -29 -67 -56 rcurveline
          37 -45 70 59 rlineto
          -17 26 34 -9 39 hhcurveto
          38 37 9 17 32 hvcurveto
          49 -59 53 45 -46 55 28 29 21 38 8 45 rlinecurve
          8 46 -8 38 -19 29 rrcurveto
          endchar
        </CharString>
        <CharString name="d">
          51 510 423 70 callgsubr
        </CharString>
        <CharString name="dagger">
          -58 378 543 rmoveto
          54 240 15 callsubr
          -32 -240 -195 8 -15 -88 197 8 -140 -733 112 callgsubr
          118 733 195 -8 -46 callgsubr
          endchar
        </CharString>
        <CharString name="daggerdbl">
          -58 576 551 rmoveto
          -198 -8 53 240 15 callsubr
          -31 -240 -196 8 -15 -88 198 8 -74 -420 -195 9 -15 -89 197 8 -54 -241 112 callgsubr
          32 241 196 -8 15 89 -198 -9 74 420 196 -8 rlineto
          endchar
        </CharString>
        <CharString name="danda">
          -322 219 741 rmoveto
          251 callsubr
          endchar
        </CharString>
        <CharString name="dcaron">
          136 726 740 290 callgsubr
          -4 -21 rlineto
          -39 -7 -19 -19 -35 hhcurveto
          -8 -48 rlineto
          75 47 45 79 13 hvcurveto
          5 30 2 33 -3 37 rrcurveto
          -315 -317 70 callgsubr
        </CharString>
        <CharString name="dcroat">
          49 514 423 rmoveto
          79 -14 -63 56 -106 hhcurveto
          -141 -123 -102 273 callgsubr
          -110 143 265 callgsubr
          115 hlineto
          110 623 rlineto
          52 hlineto
          9 54 rlineto
          -51 hlineto
          11 63 102 callgsubr
          -11 -63 rlineto
          -151 hlineto
          -9 -54 rlineto
          150 hlineto
          -60 -347 118 callsubr
          -97 hhcurveto
          -100 -55 67 115 20 hvcurveto
          114 20 80 68 100 hhcurveto
          97 58 -71 -111 -19 hvcurveto
          endchar
        </CharString>
        <CharString name="degree">
          -200 27 526 rmoveto
          -109 -19 64 -70 110 hhcurveto
          111 83 70 109 19 hvcurveto
          108 20 -62 68 -111 hhcurveto
          -111 -85 -68 -108 -19 hvcurveto
          278 -1 rmoveto
          -75 -13 -46 -38 -53 hhcurveto
          -53 -36 38 75 13 hvcurveto
          75 13 48 39 54 hhcurveto
          52 34 -39 -75 -13 hvcurveto
          endchar
        </CharString>
        <CharString name="dieresis">
          -257 144 624 -99 callgsubr
          endchar
        </CharString>
        <CharString name="divide">
          -51 21 309 rmoveto
          510 hlineto
          19 104 rlineto
          -510 hlineto
          130 -336 rmoveto
          130 hlineto
          22 125 rlineto
          -130 hlineto
          56 320 rmoveto
          130 183 callgsubr
          endchar
        </CharString>
        <CharString name="dollar">
          -25 202 -87 rmoveto
          34 hlineto
          14 80 rlineto
          2 hlineto
          161 92 95 100 17 hvcurveto
          27 152 -124 30 -103 34 39 220 rcurveline
          59 -11 25 -42 -1 -44 rrcurveto
          123 hlineto
          6 100 -63 77 -133 10 15 86 rcurveline
          -34 hlineto
          -15 -85 rlineto
          -136 -111 -75 -115 -20 hvcurveto
          -26 -150 120 -30 102 -33 -40 -227 rcurveline
          -67 12 -26 51 3 48 rrcurveto
          -122 hlineto
          -11 -112 78 -78 129 -11 rrcurveto
          184 190 rmoveto
          -58 -11 -48 -45 -75 hhcurveto
          38 219 61 -22 46 -28 -11 -66 rlinecurve
          -201 344 rmoveto
          11 63 50 34 68 1 -38 -212 rcurveline
          -59 22 -43 28 11 64 rrcurveto
          endchar
        </CharString>
        <CharString name="dotaccent">
          -450 136 624 -53 callgsubr
        </CharString>
        <CharString name="dotlessi">
          -375 17 172 callgsubr
          endchar
        </CharString>
        <CharString name="dottedcircle">
          29 557 409 -13 callsubr
          -376 -286 -13 callsubr
          98 -76 -13 callsubr
          -143 189 -13 callsubr
          267 -203 -13 callsubr
          -252 324 -13 callsubr
          367 -278 -13 callsubr
          -291 377 -13 callsubr
          364 -281 -13 callsubr
          -247 323 -13 callsubr
          257 -203 -13 callsubr
          -136 188 -13 callsubr
          endchar
        </CharString>
        <CharString name="doubledanda">
          -93 219 741 rmoveto
          251 callsubr
          124 hmoveto
          251 callsubr
          endchar
        </CharString>
        <CharString name="dvA">
          208 251 456 rmoveto
          -63 callgsubr
          104 hlineto
          116 -64 callsubr
          122 hlineto
          14 88 rlineto
          -226 -58 callgsubr
          endchar
        </CharString>
        <CharString name="dvAA">
          508 251 456 rmoveto
          -63 callgsubr
          104 hlineto
          218 callgsubr
          -527 -58 callgsubr
          endchar
        </CharString>
        <CharString name="dvAI">
          29 289 19 rmoveto
          44 callgsubr
          105 -8 callsubr
          -111 hlineto
          -90 226 -49 20 -138 1 rrcurveto
          -43 hlineto
          -15 -86 rlineto
          44 hlineto
          95 28 -14 -147 69 hvcurveto
          -490 170 callsubr
          endchar
        </CharString>
        <CharString name="dvAU">
          189 callgsubr
          -84 hlineto
          297 -101 185 callsubr
          106 15 -4 -83 97 hvcurveto
          -350 -58 callgsubr
          -41 hlineto
          -63 callgsubr
          endchar
        </CharString>
        <CharString name="dvAbbreviationsign">
          -134 274 508 rmoveto
          -100 -80 -67 -96 -17 hvcurveto
          -95 -17 60 -68 99 hhcurveto
          98 78 67 95 17 hvcurveto
          97 17 -58 67 -97 hhcurveto
          -10 -64 rmoveto
          58 33 -42 -58 -10 hvcurveto
          -58 -10 -48 -40 -58 hhcurveto
          -61 -36 41 58 10 hvcurveto
          58 10 51 41 61 hhcurveto
          endchar
        </CharString>
        <CharString name="dvAcandra">
          208 251 456 rmoveto
          -63 callgsubr
          104 hlineto
          116 -64 callsubr
          122 hlineto
          14 88 rlineto
          -226 -58 callgsubr
          773 565 60 callgsubr
          endchar
        </CharString>
        <CharString name="dvAnusvara">
          -622 7 895 rmoveto
          37 6 -23 29 -39 hhcurveto
          -37 -34 -29 -37 -6 hvcurveto
          -37 -6 24 -29 37 hhcurveto
          37 35 347 callsubr
        </CharString>
        <CharString name="dvAnusvara.amI">
          -622 193 895 rmoveto
          37 6 -24 341 callsubr
          -6 24 -29 37 hhcurveto
          38 34 29 37 7 hvcurveto
          endchar
        </CharString>
        <CharString name="dvAvagraha">
          -40 281 57 rmoveto
          98 62 55 75 13 hvcurveto
          29 165 -235 76 18 102 rrcurveto
          44 8 42 9 35 hhcurveto
          184 hlineto
          16 89 rlineto
          -211 hlineto
          -87 -75 -37 -90 -16 hvcurveto
          -30 -167 236 -76 -18 -100 rrcurveto
          -32 -5 -28 -24 -46 hhcurveto
          -239 hlineto
          -16 -89 rlineto
          endchar
        </CharString>
        <CharString name="dvB">
          -211 565 324 rmoveto
          116 19 -65 122 -171 -14 callsubr
          164 105 112 131 21 hvcurveto
          -222 165 rmoveto
          111 43 -85 256 callgsubr
          -15 -32 -22 -28 -219 218 rcurveline
          26 35 43 15 44 hhcurveto
          282 163 -74 callgsubr
          -600 -100 callsubr
          259 -497 -62 callsubr
          endchar
        </CharString>
        <CharString name="dvBA">
          67 526 125 callsubr
          -736 -100 callsubr
          513 hlineto
          114 callgsubr
          -140 -115 -90 -144 -25 hvcurveto
          10 callgsubr
          endchar
        </CharString>
        <CharString name="dvBH">
          -97 83 callsubr
          199 hlineto
          15 86 rlineto
          -199 -75 callsubr
        </CharString>
        <CharString name="dvBHA">
          189 229 178 rmoveto
          -54 -36 37 59 11 hvcurveto
          61 11 51 36 64 hhcurveto
          81 hlineto
          -13 -74 rlineto
          -74 -13 -41 -45 -61 hhcurveto
          215 124 rmoveto
          12 69 rlineto
          151 hlineto
          -65 -371 rlineto
          105 hlineto
          116 652 rlineto
          122 hlineto
          15 88 rlineto
          -228 hlineto
          -50 -283 rlineto
          -151 -75 callsubr
        </CharString>
        <CharString name="dvBH_LA">
          800 83 callsubr
          129 hlineto
          -7 -19 -5 -21 -4 -22 rrcurveto
          -93 callgsubr
          -23 callgsubr
          -18 hvcurveto
          -2 -18 rlineto
          88 hlineto
          2 18 rlineto
          95 17 51 264 callgsubr
          -63 90 callgsubr
          -8 hvcurveto
          -17 269 callsubr
          16 -1 9 53 callgsubr
          -41 callgsubr
          -885 -100 callsubr
          550 66 callgsubr
          -71 -65 -27 -53 -46 hvcurveto
          -165 -75 callsubr
        </CharString>
        <CharString name="dvBH_NA">
          704 83 callsubr
          137 332 callsubr
          rrcurveto
          -119 -20 78 270 callsubr
          175 hlineto
          -74 -414 307 callgsubr
          121 -22 callsubr
          -764 -100 callsubr
          538 hlineto
          -27 -150 rlineto
          -321 hlineto
          -61 -54 -15 -30 -44 hvcurveto
          -195 85 callgsubr
          -79 -74 -105 -17 hvcurveto
          4 callsubr
          9 40 35 48 hhcurveto
          57 16 -45 -68 -12 hvcurveto
          -16 -89 rlineto
          -84 hlineto
          -115 -99 -63 -120 -22 hvcurveto
          -111 -19 67 33 callsubr
          225 hmoveto
          66 11 56 293 callgsubr
          -47 -64 -12 hvcurveto
          -63 -12 -54 156 callgsubr
          12 hvcurveto
          endchar
        </CharString>
        <CharString name="dvBH_R">
          -103 232 197 136 callgsubr
          213 125 rmoveto
          9 54 rlineto
          202 hlineto
          15 85 rlineto
          -202 79 callgsubr
          -137 -400 rmoveto
          316 269 17 98 -450 -367 rlineto
          endchar
        </CharString>
        <CharString name="dvBH_RA">
          210 232 197 136 callgsubr
          213 125 rmoveto
          9 54 rlineto
          180 hlineto
          -19 -106 -424 -348 305 callgsubr
          -30 -172 rlineto
          95 -69 callgsubr
          123 -22 callsubr
          -222 hlineto
          -49 -279 rlineto
          -180 79 callgsubr
          endchar
        </CharString>
        <CharString name="dvBH_R_YA">
          630 232 197 rmoveto
          -55 -35 337 callgsubr
          10 51 32 61 hhcurveto
          86 hlineto
          -11 -60 rlineto
          -74 -13 -41 -45 -63 hhcurveto
          213 125 rmoveto
          9 54 rlineto
          121 hlineto
          -9 -50 2 -46 13 -39 -390 -319 rcurveline
          117 hlineto
          304 259 rlineto
          -50 39 67 -28 86 25 callgsubr
          -160 hlineto
          12 71 292 callgsubr
          -132 hhcurveto
          -116 -79 -73 -104 -16 hvcurveto
          -2 -13 -1 -14 -13 vvcurveto
          102 hlineto
          13 0 10 2 12 vhcurveto
          57 9 39 35 50 hhcurveto
          59 18 -44 -69 -12 hvcurveto
          -16 -89 rlineto
          -86 hlineto
          -113 -99 -57 -110 -21 hvcurveto
          -107 -20 70 -73 215 callsubr
          389 -131 -4 callsubr
          endchar
        </CharString>
        <CharString name="dvBH_VA">
          569 803 170 rmoveto
          -87 -54 58 93 16 hvcurveto
          91 16 77 58 85 hhcurveto
          104 34 -77 -74 -13 hvcurveto
          -69 -13 -60 -80 -105 hhcurveto
          -574 8 -39 callsubr
          132 279 callsubr
          82 -38 callsubr
          103 hlineto
          37 callgsubr
          -642 -5 callgsubr
          419 hlineto
          -34 -191 rlineto
          57 -23 -55 37 -87 hhcurveto
          -85 -75 -36 -62 -48 hvcurveto
          -162 -75 callsubr
        </CharString>
        <CharString name="dvBH_YA">
          630 229 178 -27 callgsubr
          605 13 -4 callsubr
          -390 111 rmoveto
          12 69 rlineto
          119 hlineto
          -166 -27 91 -102 165 25 callgsubr
          -158 -75 callsubr
        </CharString>
        <CharString name="dvB_BA">
          492 343 489 rmoveto
          111 43 -85 256 callgsubr
          -15 -32 -22 -28 -219 218 rcurveline
          26 35 43 15 44 hhcurveto
          609 -489 250 callsubr
          -1162 -100 callsubr
          939 hlineto
          114 callgsubr
          -89 -79 -36 -64 -52 hvcurveto
          59 -31 -64 42 -101 -14 callsubr
          99 77 41 61 51 hvcurveto
          -63 33 66 -38 83 hhcurveto
          88 70 40 55 40 hvcurveto
          -31 -177 rlineto
          -566 155 -62 callsubr
          432 3 0 callgsubr
          57 333 -4 callgsubr
          endchar
        </CharString>
        <CharString name="dvB_BHA">
          608 648 178 rmoveto
          -55 -35 129 callgsubr
          51 36 63 hhcurveto
          82 173 callsubr
          133 callsubr
          214 197 callsubr
          152 hlineto
          -65 50 callgsubr
          123 263 callsubr
          -152 hlineto
          13 71 callgsubr
          -24 -21 -3 -6 -19 hvcurveto
          -651 -100 callsubr
          686 hlineto
          4 11 11 3 12 hhcurveto
          57 16 -45 -68 -12 hvcurveto
          -16 -89 rlineto
          -85 hlineto
          -53 -51 -14 -27 -40 hvcurveto
          81 -21 -68 65 -125 -14 callsubr
          88 72 33 50 50 hvcurveto
          -47 26 53 -28 71 -61 callsubr
          -519 187 -70 callgsubr
          endchar
        </CharString>
        <CharString name="dvB_BH_RA">
          630 343 489 -70 callgsubr
          368 42 rmoveto
          -56 -34 337 callgsubr
          11 50 32 61 hhcurveto
          85 hlineto
          -10 -60 rlineto
          -74 -13 -42 -45 -62 hhcurveto
          57 455 rmoveto
          5 11 12 2 13 hhcurveto
          59 17 -44 -69 -12 hvcurveto
          -15 -85 rlineto
          -86 hlineto
          -56 -51 -14 -27 -41 hvcurveto
          79 -22 -68 63 -123 -14 callsubr
          95 75 37 57 50 hvcurveto
          -41 28 51 -24 67 hhcurveto
          120 82 80 132 23 hvcurveto
          9 54 rlineto
          179 hlineto
          -19 -107 -423 -347 305 callgsubr
          -30 -172 rlineto
          95 213 callsubr
          -49 -279 rlineto
          -179 hlineto
          12 67 rlineto
          128 22 -34 93 -132 hhcurveto
          -24 -22 -3 -6 -19 hvcurveto
          -652 258 callsubr
        </CharString>
        <CharString name="dvB_DA">
          415 343 489 -70 callgsubr
          824 497 -74 callgsubr
          -1084 -100 callsubr
          844 138 callsubr
          -97 -88 -30 -64 -58 hvcurveto
          61 -31 -65 44 -103 -14 callsubr
          97 76 39 59 51 hvcurveto
          -58 30 60 -32 72 hhcurveto
          68 58 27 42 36 hvcurveto
          -89 callgsubr
          endchar
        </CharString>
        <CharString name="dvB_DHA">
          506 243 callgsubr
          -24 -31 -40 -16 -46 hhcurveto
          913 498 rmoveto
          6 callsubr
          -613 -100 callsubr
          517 69 callgsubr
          -54 -9 -65 -39 -23 -77 -8 -21 -11 -20 -15 -18 -220 218 150 callgsubr
          86 74 35 59 52 hvcurveto
          -54 29 66 -29 80 330 callgsubr
          105 hlineto
          115 652 rlineto
          endchar
        </CharString>
        <CharString name="dvB_DH_VA">
          917 243 callgsubr
          -25 -31 -40 -15 -46 hhcurveto
          1202 498 rmoveto
          -19 callgsubr
          -613 -100 callsubr
          518 69 callgsubr
          -53 -8 -64 -36 -23 -75 -7 -22 -13 -23 -17 -21 -220 219 150 callgsubr
          87 75 36 60 52 hvcurveto
          -58 31 76 -28 93 hhcurveto
          110 83 40 71 54 hvcurveto
          -74 25 67 -42 90 42 callsubr
          -225 170 29 callsubr
          endchar
        </CharString>
        <CharString name="dvB_JA">
          630 286 155 -6 callgsubr
        </CharString>
        <CharString name="dvB_JHA">
          699 290 155 rmoveto
          -92 -69 61 104 18 hvcurveto
          6 37 15 31 20 25 223 -219 rcurveline
          -24 -31 -40 -15 -50 hhcurveto
          404 171 rmoveto
          311 callsubr
          209 198 callsubr
          18 106 rlineto
          201 338 callgsubr
          46 -326 64 callsubr
          -1368 -5 callgsubr
          841 hlineto
          -18 -106 rlineto
          -134 hlineto
          -94 -96 -39 -109 -18 hvcurveto
          -8 -39 -8 -45 -17 -47 -30 -37 rlinecurve
          -222 219 rlineto
          27 37 45 14 47 hhcurveto
          27 24 -4 -7 22 hvcurveto
          12 71 rlineto
          7 -24 -31 5 -27 hhcurveto
          -164 -109 -99 -141 -25 hvcurveto
          -142 -24 94 -99 148 hhcurveto
          144 87 88 114 40 hvcurveto
          27 -21 38 -10 40 -1 rrcurveto
          96 hlineto
          83 36 -37 -59 -11 hvcurveto
          -46 -8 -38 -40 -73 hhcurveto
          -81 -36 46 56 3 hvcurveto
          -90 hlineto
          -44 -250 rlineto
          95 hlineto
          26 143 rlineto
          -21 11 36 -52 97 hhcurveto
          114 68 66 85 14 hvcurveto
          9 46 -9 34 -18 25 168 -1 rcurveline
          -43 -246 rlineto
          endchar
        </CharString>
        <CharString name="dvB_J_YA">
          1085 1290 191 51 callgsubr
          -947 298 rmoveto
          111 43 -85 127 callsubr
          -28 -220 218 rcurveline
          26 35 43 15 44 hhcurveto
          -57 349 callsubr
          -70 61 104 18 hvcurveto
          7 36 15 31 20 26 221 -217 rcurveline
          -25 -31 -41 -16 -48 hhcurveto
          1495 497 -28 callgsubr
          -1755 -100 callsubr
          1240 180 callsubr
          -71 -13 -45 -47 -64 hhcurveto
          -59 -28 41 62 7 hvcurveto
          2 1 3 2 vvcurveto
          116 20 -63 122 -175 hhcurveto
          -154 -118 -95 -140 139 callsubr
          -26 92 -104 153 hhcurveto
          99 79 43 62 52 hvcurveto
          -40 23 44 -24 68 hhcurveto
          128 -1 84 227 callsubr
          8 43 rcurveline
          100 hlineto
          20 16 0 15 hhcurveto
          -158 -18 85 -112 156 hhcurveto
          97 74 39 54 47 hvcurveto
          -35 -196 207 callgsubr
        </CharString>
        <CharString name="dvB_JxA">
          630 679 -18 rmoveto
          -101 callgsubr
          -393 173 -6 callgsubr
        </CharString>
        <CharString name="dvB_LA">
          698 1243 163 callgsubr
          -1368 -100 callsubr
          1033 hlineto
          -20 -118 -86 -13 -52 -59 -28 -60 rlinecurve
          -3 hlineto
          66 -8 -42 69 -104 hhcurveto
          -66 -60 -27 -52 -44 hvcurveto
          60 -31 -65 44 -102 -14 callsubr
          90 72 34 52 50 hvcurveto
          -67 26 62 -43 97 281 callgsubr
          -96 -38 64 90 16 hvcurveto
          82 14 -23 callgsubr
          -17 305 callsubr
          rlineto
          95 17 50 264 callgsubr
          -63 90 callgsubr
          -8 hvcurveto
          -16 269 callsubr
          15 -1 10 hhcurveto
          159 -2 102 102 24 142 rrcurveto
          -958 -144 -62 callsubr
          58 334 rmoveto
          111 43 -85 256 callgsubr
          -15 -32 -22 -28 -219 218 rcurveline
          26 35 43 15 44 hhcurveto
          endchar
        </CharString>
        <CharString name="dvB_L_YA">
          1193 285 155 -62 callsubr
          1112 36 rmoveto
          -117 -60 73 110 21 hvcurveto
          2 1 1 2 vvcurveto
          125 7 73 65 22 121 15 80 rcurveline
          86 callsubr
          491 461 -74 callgsubr
          -1863 -100 callsubr
          1347 hlineto
          -11 -62 -15 -87 -45 -46 -73 -16 rlinecurve
          -21 64 -61 34 -71 -2 -107 -3 -64 -64 -32 -68 rrcurveto
          -2 hlineto
          66 -9 -42 69 -103 hhcurveto
          -67 -60 -27 -52 -44 hvcurveto
          60 -31 -65 44 -102 -14 callsubr
          92 73 35 54 50 hvcurveto
          -69 26 61 -44 95 hhcurveto
          9 9 130 callgsubr
          16 92 rlineto
          -1 -9 -9 -1 -8 hhcurveto
          -96 -39 64 90 16 hvcurveto
          82 14 51 60 80 hhcurveto
          82 20 -70 -94 -13 305 callsubr
          13 95 54 66 83 3 rlinecurve
          50 2 38 -27 5 -42 rrcurveto
          -164 -30 83 -111 169 hhcurveto
          99 75 40 54 48 hvcurveto
          -35 -34 callgsubr
          -1423 -163 rmoveto
          111 43 -85 256 callgsubr
          -15 -32 -22 -28 -219 218 rcurveline
          26 35 43 15 44 hhcurveto
          endchar
        </CharString>
        <CharString name="dvB_NA">
          611 576 302 -99 callsubr
          -233 187 -70 callgsubr
          1022 497 -28 callgsubr
          -1281 -100 callsubr
          1054 73 callsubr
          -71 -62 -21 -40 -46 hvcurveto
          69 -28 -66 52 -112 -14 callsubr
          99 77 41 60 50 hvcurveto
          -49 31 57 -30 72 -82 callsubr
        </CharString>
        <CharString name="dvB_R">
          -211 625 -41 callsubr
          -600 -100 callsubr
          539 -328 rmoveto
          116 19 -65 122 -171 -16 callgsubr
          6 6 0 6 hhcurveto
          -163 -137 rlineto
          107 hlineto
          216 193 61 45 39 68 12 74 rlinecurve
          -222 165 -70 callgsubr
          endchar
        </CharString>
        <CharString name="dvB_RA">
          66 426 143 rmoveto
          11 10 10 11 9 11 -31 -175 rcurveline
          101 hlineto
          77 callsubr
          -736 -100 callsubr
          513 hlineto
          -32 -185 rlineto
          53 -26 -55 41 -86 hhcurveto
          -140 -117 -90 -144 -25 hvcurveto
          79 callsubr
        </CharString>
        <CharString name="dvB_SA">
          615 343 489 -70 callgsubr
          596 413 -35 callgsubr
          -1285 -100 callsubr
          766 -65 callsubr
          -24 hlineto
          83 -19 -68 68 -128 -14 callsubr
          75 63 23 39 48 hvcurveto
          -91 9 62 -61 109 -91 callgsubr
          24 132 rlineto
          438 hlineto
          -59 -335 -12 callgsubr
        </CharString>
        <CharString name="dvB_SHA">
          614 892 215 rmoveto
          -103 hlineto
          -81 -13 -47 132 callsubr
          14 128 callsubr
          144 124 71 151 27 hvcurveto
          136 25 -84 81 -122 hhcurveto
          -26 -24 -4 -7 -22 hvcurveto
          2 -664 vlineto
          -73 callsubr
          700 hlineto
          4 12 14 2 14 hhcurveto
          62 38 -46 -71 -12 hvcurveto
          -101 -18 -95 -41 -99 hhcurveto
          -77 hlineto
          88 -14 -69 75 -134 -14 callsubr
          76 63 24 39 48 hvcurveto
          -94 10 68 -58 113 hhcurveto
          141 80 91 132 18 hvcurveto
          -549 274 -70 callgsubr
          788 -155 126 callgsubr
          -228 hlineto
          -131 323 callsubr
        </CharString>
        <CharString name="dvB_TA">
          497 343 489 rmoveto
          111 43 -85 -83 -15 hvcurveto
          -1 -4 0 -3 -1 -4 -3 -8 -3 -9 -3 -9 -7 -19 -10 -18 -14 -17 -219 218 rcurveline
          26 35 43 15 44 hhcurveto
          -58 -334 -62 callsubr
          907 497 -74 callgsubr
          -1167 -100 callsubr
          939 161 callgsubr
          -91 -82 -22 -50 -60 hvcurveto
          77 -23 -68 61 -121 -14 callsubr
          78 64 25 41 49 hvcurveto
          -97 24 89 -48 111 158 callsubr
        </CharString>
        <CharString name="dvB_VA">
          477 343 489 -70 callgsubr
          427 15 -81 callsubr
          -1147 -100 callsubr
          922 -6 callsubr
          -83 -71 -34 -59 -48 hvcurveto
          58 -32 -64 42 -100 -14 callsubr
          98 77 40 60 51 hvcurveto
          -60 30 62 -35 81 -80 callgsubr
        </CharString>
        <CharString name="dvB_YA">
          544 1240 99 callsubr
          -1214 -100 callsubr
          699 hlineto
          -11 -62 -18 -97 -52 -45 -89 -10 rlinecurve
          70 -27 -66 54 -114 -14 callsubr
          109 83 49 72 49 hvcurveto
          37 -62 69 -36 92 -1 98 -1 75 40 46 55 -34 -197 rcurveline
          -52 callgsubr
          -833 -497 -62 callsubr
          464 36 90 callsubr
        </CharString>
        <CharString name="dvC">
          -162 427 440 rmoveto
          67 callsubr
          -130 -23 91 -68 127 hhcurveto
          160 120 110 151 23 hvcurveto
          -90 hlineto
          -17 -97 -75 -75 212 callsubr
          287 212 -28 callgsubr
          -651 258 callsubr
        </CharString>
        <CharString name="dvCA">
          118 813 -41 callsubr
          -788 -100 callsubr
          561 148 callgsubr
          -54 -32 -37 -52 -11 -64 rrcurveto
          -124 -22 82 -73 115 125 callgsubr
          endchar
        </CharString>
        <CharString name="dvCH">
          195 890 652 48 callsubr
          138 24 -70 72 -106 20 callsubr
          -138 -76 49 91 16 hvcurveto
          61 10 53 51 94 hhcurveto
          20 hlineto
          15 85 rlineto
          -22 hlineto
          -84 -25 40 69 12 hvcurveto
          16 91 rlineto
          endchar
        </CharString>
        <CharString name="dvCHA">
          195 890 652 48 callsubr
          116 callsubr
          -329 -537 -86 callgsubr
          endchar
        </CharString>
        <CharString name="dvCH_R">
          195 890 652 64 callgsubr
          -24 -123 92 -78 146 -20 -158 -147 rcurveline
          108 287 callsubr
          109 hlineto
          -111 153 167 34 118 109 28 158 rlinecurve
          138 24 -70 72 -106 20 callsubr
          -138 -76 49 91 16 hvcurveto
          61 10 53 51 94 hhcurveto
          20 hlineto
          15 85 rlineto
          -22 hlineto
          -84 -25 40 69 12 hvcurveto
          16 91 rlineto
          endchar
        </CharString>
        <CharString name="dvCH_RA">
          195 352 115 -86 callgsubr
          538 537 64 callgsubr
          -24 -123 92 -78 146 -20 -158 -147 rcurveline
          108 287 callsubr
          109 hlineto
          -111 153 167 34 118 109 28 158 rlinecurve
          116 callsubr
          endchar
        </CharString>
        <CharString name="dvCH_R_YA">
          -11 callsubr
          -24 -123 93 -79 146 -19 -157 -147 rcurveline
          108 287 callsubr
          109 hlineto
          -112 154 115 23 92 59 54 86 rlinecurve
          222 callgsubr
        </CharString>
        <CharString name="dvCH_YA">
          -11 callsubr
          rrcurveto
          -143 -28 130 -83 187 hhcurveto
          170 137 66 114 72 hvcurveto
          222 callgsubr
        </CharString>
        <CharString name="dvC_CA">
          506 345 182 rmoveto
          -76 -56 45 82 15 hvcurveto
          76 13 65 55 84 hhcurveto
          226 hlineto
          -51 -30 -36 -49 -13 -59 rrcurveto
          -66 -29 -62 -54 -80 hhcurveto
          856 470 -28 callgsubr
          -1175 -100 callsubr
          949 hlineto
          -55 -307 -21 -92 -72 -70 -93 -1 rlinecurve
          -76 -57 45 82 14 hvcurveto
          76 14 65 55 83 hhcurveto
          37 hlineto
          15 83 rlineto
          -752 hlineto
          -15 -83 282 callsubr
          -54 -32 -36 -52 -12 -64 rrcurveto
          -124 -22 89 -74 115 hhcurveto
          88 72 42 64 51 hvcurveto
          -67 22 65 -38 83 hhcurveto
          82 74 154 callgsubr
          endchar
        </CharString>
        <CharString name="dvC_CHA">
          647 804 115 -86 callgsubr
          538 537 -74 callgsubr
          -1317 -100 callsubr
          564 197 callgsubr
          -66 -14 -57 -40 -25 -66 rrcurveto
          -58 -34 -60 -46 -69 hhcurveto
          -76 -1 -57 45 15 82 rrcurveto
          63 callgsubr
          99 -70 119 hhcurveto
          69 64 27 45 48 hvcurveto
          -90 28 112 -51 146 140 callsubr
        </CharString>
        <CharString name="dvC_CH_VA">
          649 732 -227 rmoveto
          -72 -47 48 78 14 hvcurveto
          14 70 58 54 87 2 rrcurveto
          0 vlineto
          1 0 0 1 hhcurveto
          42 40 4 8 38 hvcurveto
          -25 -140 rlineto
          0 vlineto
          -59 -10 -53 -65 -88 hhcurveto
          72 342 -86 callgsubr
          538 537 -74 callgsubr
          -1317 -100 callsubr
          564 197 callgsubr
          -66 -14 -57 -40 -25 -66 rrcurveto
          -58 -34 -60 -46 -69 hhcurveto
          -76 -1 -57 45 15 82 rrcurveto
          63 callgsubr
          99 -70 119 hhcurveto
          69 64 27 45 48 hvcurveto
          18 -56 50 -41 70 -23 -57 -30 -42 -53 -12 -73 -20 -112 71 -84 113 -2 73 -1 57 29 37 46 -23 -132 rcurveline
          94 hlineto
          77 435 112 52 76 93 22 123 rlinecurve
          116 callsubr
          endchar
        </CharString>
        <CharString name="dvC_MA">
          648 1082 457 36 callsubr
          -443 -474 -96 callsubr
          670 474 -28 callgsubr
          -1317 -100 callsubr
          825 hlineto
          -35 -195 rlineto
          -85 hlineto
          -107 -95 -55 -106 -28 hvcurveto
          -63 -28 -54 -51 -75 hhcurveto
          -75 -56 45 82 15 hvcurveto
          63 callgsubr
          95 -70 118 hhcurveto
          77 64 32 52 46 hvcurveto
          -55 23 56 -34 78 74 callgsubr
        </CharString>
        <CharString name="dvC_NA">
          636 601 167 callsubr
          -1306 -100 callsubr
          1079 73 callsubr
          -126 -102 -66 -125 -23 hvcurveto
          -73 -23 -56 -55 -82 hhcurveto
          -76 -1 -57 45 15 82 rrcurveto
          63 callgsubr
          101 -70 117 hhcurveto
          83 70 38 61 46 hvcurveto
          -55 28 61 -35 77 -82 callsubr
        </CharString>
        <CharString name="dvC_R">
          -162 677 99 callsubr
          -651 -100 callsubr
          401 -212 rmoveto
          67 callsubr
          -130 -23 91 -68 127 4 4 0 4 hhcurveto
          -163 -140 112 callgsubr
          212 193 68 46 47 74 13 88 rlinecurve
          -90 hlineto
          -17 -97 -75 -75 212 callsubr
          endchar
        </CharString>
        <CharString name="dvC_RA">
          118 813 -41 callsubr
          -788 -100 callsubr
          561 hlineto
          -53 -300 rlineto
          1 vlineto
          -19 -96 -73 -74 212 callsubr
          37 hlineto
          65 callgsubr
          -54 -32 -37 -52 -11 -64 -20 -118 77 -71 111 -4 -169 -145 348 callgsubr
          215 192 20 14 17 16 15 19 rlinecurve
          -34 -195 347 callgsubr
        </CharString>
        <CharString name="dvC_YA">
          594 798 191 rmoveto
          -103 callgsubr
          -1264 -100 callsubr
          748 -24 callsubr
          -3 -16 rrcurveto
          -1 -3 0 -3 -3 vvcurveto
          -29 -114 -61 -79 -103 -1 rrcurveto
          -76 -57 45 82 15 hvcurveto
          75 callsubr
          -130 -23 100 -68 118 hhcurveto
          103 78 49 82 51 hvcurveto
          -77 33 75 -45 106 -65 callgsubr
        </CharString>
        <CharString name="dvCandrabindu">
          -622 174 287 callgsubr
          -87 hhcurveto
          -87 -32 55 55 9 hvcurveto
          -84 hlineto
          -105 -19 72 -81 134 hhcurveto
          142 80 176 callgsubr
        </CharString>
        <CharString name="dvD">
          -13 548 -300 217 callgsubr
          87 -206 rlineto
          244 952 -74 callgsubr
          -657 -39 callgsubr
          endchar
        </CharString>
        <CharString name="dvDA">
          -10 684 -41 callsubr
          -657 -39 callgsubr
          endchar
        </CharString>
        <CharString name="dvDA_mvR">
          -32 534 217 rmoveto
          -89 hlineto
          -91 -16 -73 -48 -89 hhcurveto
          -79 -46 34 59 11 hvcurveto
          55 11 52 28 60 hhcurveto
          53 hlineto
          14 78 rlineto
          -48 hlineto
          -68 -43 27 49 9 hvcurveto
          57 10 55 18 62 hhcurveto
          183 hlineto
          30 169 rlineto
          135 -8 callsubr
          -642 -5 callgsubr
          407 hlineto
          -17 -95 rlineto
          -126 hlineto
          -96 -86 -35 -99 -18 hvcurveto
          -13 -75 54 -46 55 -9 rrcurveto
          -3 vlineto
          -56 -8 -71 -38 -15 -83 rrcurveto
          -106 -19 92 -56 129 hhcurveto
          147 115 73 145 26 hvcurveto
          endchar
        </CharString>
        <CharString name="dvDD">
          -49 373 -295 214 callgsubr
          381 947 -28 callgsubr
          -619 -49 callsubr
          174 hlineto
          33 182 rlineto
          endchar
        </CharString>
        <CharString name="dvDDA">
          -49 647 99 callsubr
          -619 -49 callsubr
          174 hlineto
          33 182 rlineto
          endchar
        </CharString>
        <CharString name="dvDDH">
          23 416 -276 217 callgsubr
          88 -206 rlineto
          409 928 -74 callgsubr
          -693 -60 callsubr
          101 hlineto
          30 173 rlineto
          endchar
        </CharString>
        <CharString name="dvDDHA">
          23 718 -41 callsubr
          -693 -60 callsubr
          101 hlineto
          30 173 rlineto
          endchar
        </CharString>
        <CharString name="dvDDH_DDHA">
          51 746 652 231 callsubr
          419 -5 callgsubr
          -53 325 callsubr
          -99 39 -71 76 -38 -87 -35 -66 -69 -18 -100 rrcurveto
          -153 -27 110 -85 167 hhcurveto
          159 100 67 103 18 hvcurveto
          83 14 -51 63 -106 hhcurveto
          -92 -71 -44 -78 -13 hvcurveto
          -1 -9 -1 -12 -10 vvcurveto
          71 hlineto
          -1 5 0 7 1 6 rrcurveto
          38 6 38 27 48 hhcurveto
          56 24 -33 -44 -8 hvcurveto
          -60 -11 -71 -38 -94 hhcurveto
          -128 -60 65 101 19 hvcurveto
          113 20 103 59 111 hhcurveto
          0 1 vlineto
          144 105 66 103 19 hvcurveto
          84 15 -49 62 -108 hhcurveto
          -93 -71 -43 -78 -13 hvcurveto
          -1 -9 -1 -12 -10 vvcurveto
          70 hlineto
          5 1 7 5 vvcurveto
          38 5 40 27 49 hhcurveto
          54 23 -32 -43 -7 hvcurveto
          -62 -9 -74 -38 -93 hhcurveto
          -127 -60 66 101 18 hvcurveto
          113 20 98 57 110 hhcurveto
          114 hlineto
          27 155 rlineto
          endchar
        </CharString>
        <CharString name="dvDDH_R">
          23 406 -363 217 callgsubr
          88 -206 rlineto
          419 1015 18 callsubr
        </CharString>
        <CharString name="dvDDH_RA">
          23 718 652 18 callsubr
        </CharString>
        <CharString name="dvDDH_VA">
          24 719 -41 callsubr
          -694 -100 callsubr
          414 -5 callgsubr
          -48 325 callsubr
          -101 38 -72 73 -37 -68 -27 -52 -58 -14 -79 rrcurveto
          -108 -20 65 -75 115 hhcurveto
          69 55 30 46 37 hvcurveto
          -27 -151 rlineto
          88 hlineto
          76 430 53 30 34 46 10 56 rlinecurve
          82 14 -47 62 -101 hhcurveto
          -90 -70 -43 -78 -13 313 callsubr
          1 7 1 5 rrcurveto
          39 6 36 26 47 hhcurveto
          48 23 -31 -44 -8 hvcurveto
          -61 -10 -66 -39 -90 hhcurveto
          -127 -59 66 101 18 hvcurveto
          114 20 99 56 110 hhcurveto
          108 hlineto
          27 155 rlineto
          -301 -797 rmoveto
          -67 -44 44 69 13 hvcurveto
          79 15 69 43 105 hhcurveto
          27 25 2 4 23 hvcurveto
          -22 -123 rlineto
          -58 -14 -50 -60 -80 hhcurveto
          endchar
        </CharString>
        <CharString name="dvDDH_YA">
          663 1123 103 callgsubr
          -1334 -60 callsubr
          332 hlineto
          53 68 -11 -66 -11 hvcurveto
          -59 -11 -55 -17 -66 hhcurveto
          -32 hlineto
          -2 -9 -3 -10 -2 -9 rrcurveto
          -151 -26 77 -80 127 333 callsubr
          -28 314 callsubr
          12 hvcurveto
          91 5 71 36 15 87 rrcurveto
          101 17 -78 41 -126 hhcurveto
          -244 hlineto
          18 102 rlineto
          594 hlineto
          -56 -318 rlineto
          0 vlineto
          -114 -20 -71 -73 -96 hhcurveto
          endchar
        </CharString>
        <CharString name="dvDDHxA">
          23 718 -41 callsubr
          -693 -60 callsubr
          101 hlineto
          30 173 rlineto
          -214 -788 rmoveto
          -101 callgsubr
          endchar
        </CharString>
        <CharString name="dvDD_DDA">
          -36 659 -41 callsubr
          -634 -100 callsubr
          391 hlineto
          -16 -91 rlineto
          -100 hlineto
          -95 -86 -32 -93 -17 hvcurveto
          -98 -17 82 -33 118 hhcurveto
          69 63 -10 -67 -12 hvcurveto
          -47 -8 -44 -30 -71 hhcurveto
          -94 -41 43 54 7 hvcurveto
          -100 hlineto
          -10 -59 30 -45 50 -24 -49 -17 -36 -32 -9 -51 rrcurveto
          -98 -18 81 -28 120 hhcurveto
          73 58 -10 -68 -12 hvcurveto
          -48 -8 -45 -29 -71 hhcurveto
          -88 -47 38 60 9 hvcurveto
          -100 hlineto
          -108 -16 93 -60 139 hhcurveto
          134 83 55 93 17 hvcurveto
          114 21 -85 30 -131 hhcurveto
          -69 -51 7 54 10 hvcurveto
          42 8 42 16 84 hhcurveto
          141 85 55 92 17 hvcurveto
          112 20 -83 32 -130 hhcurveto
          -66 -51 12 50 11 hvcurveto
          45 9 44 13 50 hhcurveto
          178 hlineto
          8 45 rlineto
          0 vlineto
          20 116 rlineto
          endchar
        </CharString>
        <CharString name="dvDD_DDHA">
          -25 665 -41 callsubr
          -613 -100 callsubr
          381 hlineto
          -16 -91 rlineto
          -101 hlineto
          -94 -86 -36 -94 -17 hvcurveto
          -98 -17 81 -28 118 hhcurveto
          70 63 -10 -67 -13 hvcurveto
          -47 -8 -44 -30 -71 hhcurveto
          -94 -40 43 54 6 hvcurveto
          -100 hlineto
          -11 -64 36 -47 57 -23 -86 -30 -66 -68 -18 -104 rrcurveto
          -151 -27 111 -80 155 hhcurveto
          149 94 67 102 17 hvcurveto
          84 15 -50 62 -102 hhcurveto
          -89 -66 -44 -77 -14 313 callsubr
          0 7 1 6 rrcurveto
          37 7 34 27 46 hhcurveto
          50 24 -32 -45 -8 hvcurveto
          -60 -11 -68 -38 -86 hhcurveto
          -120 -58 64 94 18 hvcurveto
          20 109 94 57 108 5 136 9 75 49 16 89 rrcurveto
          112 20 -82 32 -130 hhcurveto
          -66 -50 7 50 9 hvcurveto
          49 9 52 14 45 hhcurveto
          175 hlineto
          13 70 rlineto
          -1 hlineto
          17 91 rlineto
          endchar
        </CharString>
        <CharString name="dvDD_R">
          -49 352 -382 217 callgsubr
          88 -206 rlineto
          402 1034 25 callsubr
        </CharString>
        <CharString name="dvDD_RA">
          -49 647 652 25 callsubr
        </CharString>
        <CharString name="dvDD_VA">
          -24 372 -301 rmoveto
          74 424 30 25 18 32 7 40 rlinecurve
          19 108 -77 35 -118 4 -73 1 -60 3 11 56 rrcurveto
          53 10 53 11 44 hhcurveto
          175 hlineto
          8 45 rlineto
          0 vlineto
          21 116 rlineto
          157 -8 callsubr
          -646 -100 callsubr
          390 hlineto
          -17 -91 rlineto
          -100 hlineto
          -95 -86 -35 -92 -16 hvcurveto
          -114 -20 105 -20 89 hhcurveto
          77 62 -10 -70 -12 hvcurveto
          -49 -9 -44 -29 -70 hhcurveto
          -94 -42 43 53 8 hvcurveto
          -101 hlineto
          -11 -62 34 -52 59 -27 -65 -24 -51 -55 -13 -76 rrcurveto
          -106 -19 64 -70 106 hhcurveto
          62 53 22 41 37 hvcurveto
          -23 -130 rlineto
          -93 142 rmoveto
          -64 -44 41 69 13 hvcurveto
          80 14 72 40 86 hhcurveto
          31 27 3 5 25 hvcurveto
          -23 -131 rlineto
          0 vlineto
          -50 -9 -49 -57 -79 hhcurveto
          endchar
        </CharString>
        <CharString name="dvDD_YA">
          563 1023 314 callgsubr
          -1232 -49 callsubr
          336 hlineto
          51 65 -11 -63 -11 hvcurveto
          -54 -10 -54 -16 -64 hhcurveto
          -36 hlineto
          -2 -10 -2 -9 -1 -9 rrcurveto
          -151 -27 77 -80 127 hhcurveto
          87 62 38 57 42 hvcurveto
          -29 314 callsubr
          13 hvcurveto
          97 5 65 42 13 75 rrcurveto
          99 18 -76 42 -127 hhcurveto
          -171 hlineto
          20 109 rlineto
          519 hlineto
          -57 -323 rlineto
          -109 -20 -71 -73 -96 hhcurveto
          endchar
        </CharString>
        <CharString name="dvDDxA">
          -49 647 99 callsubr
          -619 -49 callsubr
          174 hlineto
          33 182 rlineto
          -231 -808 rmoveto
          -101 callgsubr
          endchar
        </CharString>
        <CharString name="dvDH">
          -189 605 330 rmoveto
          -92 hlineto
          -89 -15 -81 -62 -119 -76 callsubr
          187 115 97 142 25 hvcurveto
          endchar
        </CharString>
        <CharString name="dvDHA">
          99 795 652 rmoveto
          123 callgsubr
          9 42 67 callgsubr
          -104 46 callsubr
          -10 -71 -44 -17 -89 261 callsubr
          105 hlineto
          115 652 rlineto
          endchar
        </CharString>
        <CharString name="dvDH_MA">
          651 676 178 -96 callsubr
          670 474 -28 callgsubr
          -765 -100 callsubr
          272 hlineto
          -34 -195 rlineto
          -86 hlineto
          -107 -94 -55 -106 -28 hvcurveto
          -75 -35 -70 -42 -101 -76 callsubr
          99 77 32 55 52 hvcurveto
          -55 23 56 -34 78 127 callgsubr
          167 hlineto
          -65 50 callgsubr
          -140 -195 rmoveto
          -167 hlineto
          35 195 282 callsubr
          endchar
        </CharString>
        <CharString name="dvDH_NA">
          641 1336 -41 callsubr
          -756 -100 callsubr
          529 73 callsubr
          -124 -101 -64 -121 -25 hvcurveto
          -86 -26 -79 -52 -110 -76 callsubr
          108 84 41 67 52 hvcurveto
          -59 27 61 -37 80 hhcurveto
          107 100 69 117 20 hvcurveto
          288 callgsubr
          174 hlineto
          -73 -414 -89 callsubr
          -609 -350 rmoveto
          66 12 56 46 68 hhcurveto
          65 40 -47 -64 -12 238 callsubr
          endchar
        </CharString>
        <CharString name="dvDH_N_YA">
          1093 1787 -41 callsubr
          -1207 -100 callsubr
          692 146 callsubr
          -91 -16 -63 -35 -116 hhcurveto
          -315 hlineto
          -118 -96 -57 -111 -32 hvcurveto
          -69 -31 -75 -48 -102 -76 callsubr
          97 77 33 57 52 hvcurveto
          -70 22 66 -45 88 hhcurveto
          111 94 69 117 22 hvcurveto
          9 53 -12 42 -20 30 rrcurveto
          153 hlineto
          -163 -16 90 -111 157 hhcurveto
          97 70 37 53 45 hvcurveto
          -34 -193 -89 callsubr
          -1070 -387 rmoveto
          229 callgsubr
          700 -74 rmoveto
          -113 -56 86 108 12 hvcurveto
          126 10 77 65 20 112 14 80 rcurveline
          304 callgsubr
          endchar
        </CharString>
        <CharString name="dvDH_R">
          -194 605 330 rmoveto
          -92 hlineto
          -89 -15 -81 -62 -119 -76 callsubr
          17 15 1 1 16 hvcurveto
          -188 -159 310 callsubr
          244 220 58 42 36 61 13 73 rlinecurve
          endchar
        </CharString>
        <CharString name="dvDH_RA">
          99 455 hmoveto
          71 callsubr
          -104 46 callsubr
          -10 -71 -44 -17 -89 rrcurveto
          -113 189 callsubr
        </CharString>
        <CharString name="dvDH_VA">
          510 1083 652 rmoveto
          -10 callsubr
          -103 46 callsubr
          -9 -71 -42 -16 -90 rrcurveto
          -121 -21 99 -60 135 hhcurveto
          110 83 40 71 54 hvcurveto
          -74 25 67 -42 90 42 callsubr
          -225 170 29 callsubr
          endchar
        </CharString>
        <CharString name="dvDH_YA">
          571 1266 652 rmoveto
          53 callsubr
          -103 46 callsubr
          -9 -71 -42 -16 -88 rrcurveto
          188 callgsubr
          105 hlineto
          114 652 rlineto
          -369 -461 rmoveto
          100 callgsubr
          267 callgsubr
          73 239 callsubr
          185 hlineto
          -50 -281 rlineto
          1 306 callgsubr
          endchar
        </CharString>
        <CharString name="dvD_BA">
          165 callgsubr
          53 -31 -67 -29 -50 -60 -13 -75 rrcurveto
          -113 -20 69 -83 115 hhcurveto
          69 62 31 57 40 hvcurveto
          -26 -147 339 callsubr
          -13 -75 -37 -60 hhcurveto
          -69 -47 52 69 13 hvcurveto
          75 15 67 41 96 hhcurveto
          164 hlineto
          32 168 callgsubr
          64 5 52 26 32 39 -32 -180 238 callgsubr
        </CharString>
        <CharString name="dvD_BHA">
          771 554 -300 rmoveto
          -91 252 callsubr
          238 952 -74 callgsubr
          -657 -39 callgsubr
          261 -474 rmoveto
          -54 -36 37 59 11 hvcurveto
          61 11 51 36 64 hhcurveto
          81 hlineto
          -13 -74 rlineto
          -74 -13 -41 -45 -61 hhcurveto
          215 124 rmoveto
          12 69 rlineto
          151 hlineto
          -65 -371 rlineto
          105 hlineto
          116 652 rlineto
          122 hlineto
          15 88 rlineto
          -228 hlineto
          -50 -283 rlineto
          -151 -75 callsubr
        </CharString>
        <CharString name="dvD_B_RA">
          165 callgsubr
          52 -31 -66 -29 -50 -60 -13 -75 -19 -105 59 -79 100 -11 -141 -118 rcurveline
          111 hlineto
          180 158 17 13 15 15 13 18 rlinecurve
          -26 -146 339 callsubr
          -14 -75 -37 -60 hhcurveto
          -68 -47 52 69 13 hvcurveto
          75 15 66 41 96 hhcurveto
          164 hlineto
          33 168 callgsubr
          62 5 53 26 32 38 -31 -179 238 callgsubr
        </CharString>
        <CharString name="dvD_DA">
          -68 428 -65 rmoveto
          48 275 rlineto
          -88 hlineto
          -81 -14 -60 -47 -82 hhcurveto
          -73 -37 35 59 10 hvcurveto
          46 8 41 37 70 hhcurveto
          77 hlineto
          12 76 rlineto
          -75 hlineto
          -69 -36 33 46 9 hvcurveto
          59 10 60 22 70 hhcurveto
          148 hlineto
          28 157 rlineto
          147 -8 callsubr
          -610 -5 callgsubr
          360 hlineto
          -16 -87 rlineto
          1 -24 -24 0 -24 hhcurveto
          -111 -98 -35 -106 -20 hvcurveto
          -12 -70 47 -47 58 -11 -1 -3 rcurveline
          -69 -11 -55 -53 -12 -69 rrcurveto
          -103 -18 76 -55 100 hhcurveto
          84 56 35 41 32 hvcurveto
          -25 -144 rlineto
          endchar
        </CharString>
        <CharString name="dvD_DHA">
          288 982 652 rmoveto
          17 88 rlineto
          -951 -100 callsubr
          710 269 callgsubr
          -63 hlineto
          -152 -126 -74 -155 -28 hvcurveto
          -15 -89 24 -65 47 -39 rrcurveto
          -89 -34 -69 -52 -77 hhcurveto
          -64 -47 33 67 13 hvcurveto
          54 10 46 44 75 346 callgsubr
          37 57 10 hvcurveto
          10 54 51 41 83 -4 16 86 rcurveline
          -159 12 -84 -78 -17 -93 -16 -93 57 -46 55 -13 rrcurveto
          -4 vlineto
          -63 -11 -67 -50 -16 -86 rrcurveto
          -117 -21 87 -60 112 hhcurveto
          125 108 74 121 43 hvcurveto
          -5 17 19 -2 19 hhcurveto
          67 58 26 43 36 hvcurveto
          -31 -179 rlineto
          102 hlineto
          56 317 rlineto
          -97 hlineto
          -85 -15 -73 -38 -61 hhcurveto
          -83 -47 57 85 15 hvcurveto
          97 17 83 49 95 hhcurveto
          158 hlineto
          33 191 rlineto
          endchar
        </CharString>
        <CharString name="dvD_GA">
          28 736 99 callsubr
          -697 -5 callgsubr
          460 269 callgsubr
          -67 hlineto
          -149 -113 -66 -140 -25 hvcurveto
          -16 -92 37 -72 76 -26 -21 -117 rcurveline
          -43 -8 -23 -49 -59 hhcurveto
          -52 -12 44 39 6 hvcurveto
          5 27 rlineto
          -90 hlineto
          -6 -30 rlineto
          -96 -18 57 -67 102 hhcurveto
          117 58 79 99 17 hvcurveto
          18 104 56 5 48 25 32 35 rlinecurve
          -74 -423 rlineto
          97 hlineto
          97 552 rlineto
          -91 hlineto
          -74 -13 -76 -39 -57 hhcurveto
          -76 -40 46 70 13 hvcurveto
          78 13 68 43 96 hhcurveto
          163 hlineto
          33 189 rlineto
          endchar
        </CharString>
        <CharString name="dvD_GHA">
          287 234 -12 rmoveto
          -67 -46 33 68 13 hvcurveto
          53 9 46 44 76 346 callgsubr
          35 59 10 hvcurveto
          50 9 46 41 72 hhcurveto
          32 32 -7 -17 31 hvcurveto
          -20 -30 -15 -36 -7 -42 -16 -87 25 -66 47 -40 rrcurveto
          -89 -34 -69 -52 -75 hhcurveto
          748 664 -74 callgsubr
          -955 -5 callgsubr
          716 hlineto
          -19 -101 rlineto
          -62 hlineto
          -75 -70 -18 -39 -55 hvcurveto
          29 -44 -57 19 -59 hhcurveto
          -137 -74 -74 -88 -15 hvcurveto
          -16 -91 54 -45 58 -15 -1 -4 rcurveline
          -60 -9 -69 -47 -16 -89 rrcurveto
          -116 -20 86 -63 112 hhcurveto
          130 103 74 121 43 hvcurveto
          -5 17 18 -2 19 hhcurveto
          67 59 27 43 36 hvcurveto
          -32 -180 rlineto
          103 hlineto
          55 317 rlineto
          -97 hlineto
          -85 -14 -73 -38 -61 hhcurveto
          -84 -46 57 85 15 hvcurveto
          97 17 83 49 95 hhcurveto
          157 hlineto
          34 191 rlineto
          endchar
        </CharString>
        <CharString name="dvD_G_RA">
          28 723 -41 callsubr
          -698 -100 callsubr
          460 269 callgsubr
          -68 hlineto
          -148 -114 -66 -142 -24 hvcurveto
          -16 -90 36 -71 76 -27 -10 -57 rcurveline
          -43 -7 -23 -48 -61 hhcurveto
          -51 -14 42 41 8 hvcurveto
          5 27 rlineto
          -89 hlineto
          -3 -10 -2 -10 -1 -10 rrcurveto
          -97 -9 38 -65 105 hhcurveto
          117 65 77 100 16 hvcurveto
          8 43 55 5 49 26 32 35 rlinecurve
          -30 -175 -359 -304 rlineto
          106 hlineto
          242 213 -28 -158 rlineto
          91 hlineto
          98 552 rlineto
          -91 hlineto
          -73 -14 -74 -40 -60 hhcurveto
          -75 -40 47 69 13 hvcurveto
          78 14 66 43 96 hhcurveto
          164 hlineto
          34 189 rlineto
          endchar
        </CharString>
        <CharString name="dvD_MA">
          210 130 -52 rmoveto
          57 10 51 30 53 hhcurveto
          71 hlineto
          -10 -61 rlineto
          -67 -13 -38 -41 -54 hhcurveto
          -48 -32 34 48 10 hvcurveto
          297 173 rmoveto
          31 175 rlineto
          -186 hlineto
          -62 -40 28 58 11 hvcurveto
          52 10 49 28 61 hhcurveto
          169 hlineto
          34 190 rlineto
          179 hlineto
          -93 -531 rlineto
          323 531 -28 callgsubr
          -879 265 callsubr
          -18 -101 rlineto
          -79 hlineto
          -112 -93 -43 -119 -21 hvcurveto
          -116 -21 82 -61 107 hhcurveto
          101 hlineto
          -15 -91 rlineto
          -65 hlineto
          -106 -102 -48 -120 -21 hvcurveto
          -106 -19 73 -68 103 hhcurveto
          113 72 76 128 23 hvcurveto
          9 52 rlineto
          163 hlineto
          -54 -304 rlineto
          104 hlineto
          162 921 rlineto
          endchar
        </CharString>
        <CharString name="dvD_NA">
          766 553 -300 rmoveto
          -91 252 callsubr
          286 602 24 callgsubr
          -1434 -39 callgsubr
          685 hlineto
          -27 -150 rlineto
          -320 hlineto
          -127 -102 -67 -127 -23 hvcurveto
          -119 -21 79 -86 122 -82 callsubr
        </CharString>
        <CharString name="dvD_R">
          -10 548 -300 217 callgsubr
          87 -206 rlineto
          244 952 -74 callgsubr
          -657 -5 callgsubr
          418 138 callsubr
          -149 -130 -71 -158 -28 hvcurveto
          -20 callgsubr
        </CharString>
        <CharString name="dvD_RA">
          -10 684 -41 callsubr
          -657 -5 callgsubr
          418 138 callsubr
          -149 -130 -71 -158 -28 hvcurveto
          -20 callgsubr
        </CharString>
        <CharString name="dvD_VA">
          -17 679 99 callsubr
          -653 -100 callsubr
          414 269 callgsubr
          -68 hlineto
          -148 -113 -69 -131 -24 hvcurveto
          93 callgsubr
          -325 -733 202 callgsubr
          endchar
        </CharString>
        <CharString name="dvD_YA">
          82 253 117 rmoveto
          -76 -51 32 60 10 hvcurveto
          57 9 53 26 68 hhcurveto
          60 hlineto
          15 80 rlineto
          -62 hlineto
          -64 -47 23 56 10 hvcurveto
          9 47 45 23 50 6 -1 -9 rcurveline
          7 9 rlineto
          1 6 7 0 7 hhcurveto
          74 hlineto
          22 124 rlineto
          148 hlineto
          -57 -327 rlineto
          0 vlineto
          -148 -26 -108 -60 -108 hhcurveto
          524 535 -74 callgsubr
          -736 -5 callgsubr
          263 hlineto
          -14 -83 rlineto
          -13 -13 0 -14 hhcurveto
          -72 -89 -28 -90 -17 hvcurveto
          -14 -74 54 -37 55 -8 -1 -3 rcurveline
          -50 -8 -74 -36 -13 -86 rrcurveto
          -104 -18 90 -57 115 hhcurveto
          109 87 41 78 54 hvcurveto
          -28 -157 306 callsubr
          endchar
        </CharString>
        <CharString name="dvE">
          29 724 -41 callsubr
          -700 170 callsubr
          44 callgsubr
          endchar
        </CharString>
        <CharString name="dvEcandra">
          30 630 1019 rmoveto
          -90 hlineto
          -54 -10 -46 -54 -86 hhcurveto
          -88 -27 54 54 10 hvcurveto
          -90 hlineto
          -101 -18 50 -86 149 hhcurveto
          148 81 86 101 17 hvcurveto
          69 -367 -74 callgsubr
          -700 170 callsubr
          44 callgsubr
          endchar
        </CharString>
        <CharString name="dvEight">
          22 callsubr
        </CharString>
        <CharString name="dvEyelash">
          -311 345 435 rmoveto
          -7 -21 -24 -8 -37 hhcurveto
          -74 -73 31 95 14 hvcurveto
          -99 hlineto
          -151 -24 112 -52 116 hhcurveto
          52 53 14 18 33 hvcurveto
          35 277 -28 callgsubr
          -412 258 callsubr
        </CharString>
        <CharString name="dvEyelash_HA">
          167 706 549 137 callgsubr
          -826 -5 callgsubr
          589 192 callsubr
          -96 -73 -44 -82 -15 hvcurveto
          -4 -20 1 -19 5 -15 rrcurveto
          -3 -12 -12 -1 -13 hhcurveto
          -65 -57 34 84 15 hvcurveto
          -99 hlineto
          -139 -22 96 -62 102 hhcurveto
          54 35 13 12 26 hvcurveto
          2 -1 2 -1 2 -2 -77 callgsubr
        </CharString>
        <CharString name="dvEyelash_YA">
          325 525 191 rmoveto
          -112 -60 73 111 267 callgsubr
          73 239 callsubr
          185 hlineto
          -50 -282 rlineto
          1 vlineto
          -106 -18 -88 -74 -113 hhcurveto
          495 461 -74 callgsubr
          -995 -100 callsubr
          479 hlineto
          -11 -62 -20 -109 -62 -44 -111 -1 rlinecurve
          -74 1 -73 32 15 91 rrcurveto
          -99 hlineto
          -23 -144 105 -56 116 -6 rrcurveto
          -152 -15 90 -99 153 hhcurveto
          98 74 40 55 46 hvcurveto
          -35 -198 347 callgsubr
        </CharString>
        <CharString name="dvFive">
          68 callgsubr
        </CharString>
        <CharString name="dvFour">
          120 callsubr
        </CharString>
        <CharString name="dvG">
          -105 572 -41 callsubr
          -547 -104 callgsubr
          endchar
        </CharString>
        <CharString name="dvGA">
          144 602 77 callgsubr
          -813 -104 callgsubr
          163 hlineto
          -114 -652 rlineto
          endchar
        </CharString>
        <CharString name="dvGH">
          -203 643 99 callsubr
          -617 97 callgsubr
          hhcurveto
          166 123 114 143 26 hvcurveto
          -89 hlineto
          -98 -17 -84 -73 -110 hhcurveto
          110 callgsubr
          endchar
        </CharString>
        <CharString name="dvGHA">
          85 291 112 callsubr
          -755 -100 callsubr
          117 135 callgsubr
        </CharString>
        <CharString name="dvGH_MA">
          609 1044 457 36 callsubr
          -443 -474 -96 callsubr
          -344 10 rmoveto
          -78 -55 35 73 13 236 callsubr
          566 hlineto
          -35 -195 rlineto
          -85 hlineto
          -100 -89 -48 -92 -35 hvcurveto
          -1 vlineto
          -75 -33 -60 -53 -85 hhcurveto
          1014 464 -28 callgsubr
          -1279 179 callgsubr
          84 68 33 52 45 hvcurveto
          -61 20 58 -37 82 74 callgsubr
        </CharString>
        <CharString name="dvGH_NA">
          599 564 302 -99 callsubr
          -273 -114 rmoveto
          -78 -56 35 73 14 236 callsubr
          821 73 callsubr
          -112 -92 -52 -98 -36 hvcurveto
          -7 -14 rlineto
          -93 -35 -61 -57 -87 hhcurveto
          1004 464 -28 callgsubr
          -1269 179 callgsubr
          91 74 41 68 46 hvcurveto
          -66 23 65 -42 85 -82 callsubr
        </CharString>
        <CharString name="dvGH_R">
          -203 643 99 callsubr
          -617 97 callgsubr
          6 6 0 7 hhcurveto
          -182 -154 134 callgsubr
          236 212 67 47 45 71 15 81 rlinecurve
          -89 hlineto
          -98 -17 -84 -73 -110 hhcurveto
          110 callgsubr
          endchar
        </CharString>
        <CharString name="dvGH_RA">
          85 291 335 callsubr
          13 hvcurveto
          56 10 48 44 92 hhcurveto
          49 hlineto
          15 85 rlineto
          -42 hlineto
          -91 -27 40 69 11 hvcurveto
          12 63 rlineto
          305 hlineto
          -51 -295 rlineto
          -100 -18 -95 -69 -98 hhcurveto
          489 464 -74 callgsubr
          -755 -100 callsubr
          117 hlineto
          -12 160 callsubr
          -2 vlineto
          -68 -13 -69 -52 -16 -85 rrcurveto
          -118 -20 89 -65 121 hhcurveto
          4 hlineto
          -182 -154 310 callsubr
          233 208 20 14 17 16 15 19 rlinecurve
          -36 -205 207 callgsubr
        </CharString>
        <CharString name="dvGH_YA">
          559 291 188 rmoveto
          110 callgsubr
          491 -24 callsubr
          -3 -16 rrcurveto
          -1 -8 -2 -8 -7 vvcurveto
          -102 -26 -79 -72 -105 hhcurveto
          471 3 rmoveto
          -103 callgsubr
          -1228 97 callgsubr
          hhcurveto
          102 85 45 71 57 hvcurveto
          -72 35 74 -43 102 -65 callgsubr
        </CharString>
        <CharString name="dvG_BA">
          526 985 125 callsubr
          -1195 -104 callgsubr
          549 hlineto
          114 callgsubr
          -140 -115 -90 -144 -25 hvcurveto
          -145 -26 91 -100 135 hhcurveto
          88 70 40 55 40 hvcurveto
          -31 -177 rlineto
          -134 158 0 callgsubr
          57 333 -4 callgsubr
          endchar
        </CharString>
        <CharString name="dvG_BHA">
          644 683 178 rmoveto
          35 callsubr
          -12 -42 -45 -61 hhcurveto
          215 124 148 callsubr
          -33 93 -134 hhcurveto
          -24 -21 -3 -6 -19 hvcurveto
          -688 -100 callsubr
          319 hlineto
          -47 -261 rlineto
          -45 -7 94 callgsubr
          -11 -2 -10 rrcurveto
          -109 -21 60 -72 113 hhcurveto
          124 63 84 103 17 hvcurveto
          45 257 rlineto
          299 hlineto
          4 10 11 249 callsubr
          -84 hlineto
          -115 -99 -63 -120 -22 hvcurveto
          -111 -19 68 -74 114 hhcurveto
          126 79 78 135 24 hvcurveto
          endchar
        </CharString>
        <CharString name="dvG_BH_YA">
          1084 1288 191 -4 callsubr
          -605 -13 -39 callsubr
          119 hlineto
          -166 -27 91 -102 165 hhcurveto
          96 72 39 54 46 hvcurveto
          -34 -196 rlineto
          105 hlineto
          37 callsubr
          -707 -100 callsubr
          191 146 callsubr
          -105 -18 -64 -28 -88 hhcurveto
          -158 271 callgsubr
          -684 -104 callgsubr
          160 157 callgsubr
          -84 hlineto
          -115 -99 -63 -120 -22 hvcurveto
          11 callsubr
        </CharString>
        <CharString name="dvG_DA">
          448 1142 -41 callsubr
          -1117 -104 callgsubr
          454 138 callsubr
          -149 -130 -71 -158 -28 hvcurveto
          -50 callgsubr
        </CharString>
        <CharString name="dvG_DHA">
          549 1010 hmoveto
          -84 callgsubr
          120 hlineto
          6 callsubr
          -657 -104 callgsubr
          138 69 callgsubr
          -58 -10 -71 -44 -17 -89 246 callgsubr
        </CharString>
        <CharString name="dvG_DH_VA">
          959 1418 hmoveto
          114 652 rlineto
          -19 callgsubr
          -655 -104 callgsubr
          137 69 callgsubr
          -58 -9 -71 -42 -16 -90 rrcurveto
          -121 -21 99 -60 135 hhcurveto
          110 83 40 71 54 hvcurveto
          -74 25 67 -42 90 47 callgsubr
          -123 170 29 callsubr
          endchar
        </CharString>
        <CharString name="dvG_DH_YA">
          1021 1225 191 5 callgsubr
          -656 -104 callgsubr
          138 69 callgsubr
          -58 -9 -71 -42 -16 -88 rrcurveto
          179 callsubr
        </CharString>
        <CharString name="dvG_GA">
          608 1067 77 callgsubr
          -1278 -104 callgsubr
          361 -38 callgsubr
          -10 45 46 8 hvcurveto
          6 31 rlineto
          -102 hlineto
          -2 -10 -2 -11 -2 -10 rrcurveto
          -109 -20 59 -72 113 hhcurveto
          124 63 84 103 17 hvcurveto
          45 257 rlineto
          163 hlineto
          -114 -652 rlineto
          endchar
        </CharString>
        <CharString name="dvG_GHA">
          536 742 112 callsubr
          -1206 -104 callgsubr
          145 135 callgsubr
        </CharString>
        <CharString name="dvG_JA">
          680 1375 -41 callsubr
          -1350 -104 callgsubr
          700 122 callsubr
          -270 -97 callsubr
          168 298 callsubr
        </CharString>
        <CharString name="dvG_LA">
          745 1290 163 callgsubr
          -1415 -104 callgsubr
          657 hlineto
          -20 -118 -86 -13 -53 -59 -28 -60 rlinecurve
          -106 callsubr
          77 29 -62 -80 -14 hvcurveto
          -91 -16 -63 90 callgsubr
          -8 hvcurveto
          -17 269 callsubr
          16 -1 9 191 callsubr
          endchar
        </CharString>
        <CharString name="dvG_MA">
          652 1087 457 36 callsubr
          -443 -474 -96 callsubr
          670 474 -28 callgsubr
          -1322 -104 callgsubr
          407 120 callgsubr
        </CharString>
        <CharString name="dvG_NA">
          643 608 167 callsubr
          -1313 -104 callgsubr
          663 hlineto
          -27 -150 rlineto
          -320 hlineto
          -127 -102 -67 -127 -23 hvcurveto
          -119 -21 79 -86 122 -82 callsubr
        </CharString>
        <CharString name="dvG_NNA">
          705 728 261 rmoveto
          -59 callgsubr
          672 391 -28 callgsubr
          -1374 -104 callgsubr
          148 145 callgsubr
        </CharString>
        <CharString name="dvG_N_YA">
          1099 603 13 callgsubr
          -1769 -104 callgsubr
          830 146 callsubr
          -91 -16 -62 -35 -116 hhcurveto
          -315 hlineto
          -127 -102 -66 -128 -23 hvcurveto
          42 callgsubr
        </CharString>
        <CharString name="dvG_R">
          -123 248 -20 rmoveto
          316 269 18 110 -457 -379 rlineto
          508 672 -74 callgsubr
          -607 -36 callgsubr
          endchar
        </CharString>
        <CharString name="dvG_RA">
          144 603 125 callsubr
          -812 -36 callgsubr
          163 hlineto
          -55 -313 -432 -359 rlineto
          123 hlineto
          293 250 -41 -230 rlineto
          endchar
        </CharString>
        <CharString name="dvG_R_YA">
          582 786 191 rmoveto
          -103 callgsubr
          -1251 -36 callgsubr
          313 -24 callsubr
          -3 -16 -5 -27 -1 -26 1 -23 -398 -329 rcurveline
          123 hlineto
          291 249 rlineto
          -79 33 76 -47 107 -65 callgsubr
        </CharString>
        <CharString name="dvG_SA">
          653 918 568 -35 callgsubr
          -1322 -104 callgsubr
          380 hlineto
          -15 -84 rlineto
          -94 -17 -61 -63 -112 hhcurveto
          -88 hlineto
          -35 -198 10 callsubr
        </CharString>
        <CharString name="dvG_VA">
          509 743 170 -81 callsubr
          -1178 -104 callgsubr
          530 -6 callsubr
          -132 -104 -87 -137 -24 hvcurveto
          -151 -28 82 -94 134 -80 callgsubr
        </CharString>
        <CharString name="dvG_YA">
          581 785 191 rmoveto
          -103 callgsubr
          -1251 -104 callgsubr
          312 16 callgsubr
          endchar
        </CharString>
        <CharString name="dvGx">
          -105 572 -41 callsubr
          -547 -104 callgsubr
          -208 -588 rmoveto
          -101 callgsubr
          endchar
        </CharString>
        <CharString name="dvGxA">
          144 602 77 callgsubr
          -813 -104 callgsubr
          163 hlineto
          -114 -652 rlineto
          -257 64 rmoveto
          -101 callgsubr
          endchar
        </CharString>
        <CharString name="dvGx_R">
          -123 248 -20 rmoveto
          316 269 18 110 -457 -379 rlineto
          508 672 -74 callgsubr
          -607 -36 callgsubr
          -332 -549 -32 callgsubr
          endchar
        </CharString>
        <CharString name="dvGx_RA">
          144 603 125 callsubr
          -812 -36 callgsubr
          163 hlineto
          -55 -313 -432 -359 rlineto
          123 hlineto
          293 250 -41 -230 rlineto
          -383 103 -32 callgsubr
          endchar
        </CharString>
        <CharString name="dvH">
          -36 360 -385 144 callgsubr
          260 934 205 callgsubr
          -82 -15 hvcurveto
          -10 -58 26 -39 40 -23 -77 callgsubr
        </CharString>
        <CharString name="dvHA">
          -27 513 549 205 callgsubr
          -82 -15 hvcurveto
          -10 -58 26 -39 40 -23 -77 callgsubr
        </CharString>
        <CharString name="dvHA_mU">
          -36 525 549 rmoveto
          18 103 rlineto
          137 -8 callsubr
          -633 -5 callgsubr
          396 192 callsubr
          -96 -74 -44 -83 -15 hvcurveto
          -10 -55 25 -40 41 -23 -69 -35 -48 -62 -14 -83 rrcurveto
          -123 -22 78 -100 176 hhcurveto
          86 36 -33 -57 -10 hvcurveto
          -56 -10 -60 -33 -73 hhcurveto
          -85 -61 39 86 19 hvcurveto
          -93 hlineto
          -132 -28 106 -75 135 hhcurveto
          132 91 61 108 17 hvcurveto
          110 17 -66 65 -138 hhcurveto
          -106 -55 56 80 15 hvcurveto
          72 14 59 60 82 hhcurveto
          90 28 -63 -61 -11 hvcurveto
          99 hlineto
          104 18 -54 104 -153 hhcurveto
          -19 -18 -1 -3 -18 hvcurveto
          -30 12 -19 285 callsubr
        </CharString>
        <CharString name="dvHA_mUU">
          -36 525 549 205 callgsubr
          -81 -15 hvcurveto
          -10 -57 25 -40 40 -23 -69 -36 -47 -62 -14 -79 -14 -77 26 -64 58 -38 -45 -26 -31 -43 -10 -56 rrcurveto
          -105 -19 67 -68 95 hhcurveto
          13 13 1 1 13 hvcurveto
          13 76 rlineto
          -1 -11 -11 0 -10 hhcurveto
          -52 -37 30 54 10 hvcurveto
          54 10 53 37 67 hhcurveto
          99 51 -72 -126 -22 hvcurveto
          -7 -47 rlineto
          86 hlineto
          2 13 3 13 2 14 rrcurveto
          157 28 -52 130 -175 hhcurveto
          -87 1 -40 56 14 79 rrcurveto
          71 13 61 61 82 hhcurveto
          87 31 -63 -64 -13 hvcurveto
          99 hlineto
          105 20 -54 106 -152 hhcurveto
          -19 -19 -1 -3 -18 hvcurveto
          -32 12 -18 285 callsubr
        </CharString>
        <CharString name="dvHA_mvR">
          48 317 -220 rmoveto
          13 72 rlineto
          -147 -88 88 137 25 hvcurveto
          112 20 83 96 150 hhcurveto
          96 45 -27 -54 12 hvcurveto
          1 -23 -24 1 -34 hhcurveto
          -102 -62 -51 -73 -14 hvcurveto
          -93 -17 71 -41 75 hhcurveto
          36 27 4 8 25 hvcurveto
          11 64 rlineto
          -7 -20 -27 -4 -27 hhcurveto
          -46 -39 22 50 9 hvcurveto
          34 6 34 31 56 hhcurveto
          153 hlineto
          116 11 -67 88 -156 hhcurveto
          -43 -40 -5 -10 -36 322 callsubr
          23 6 34 rrcurveto
          48 8 46 17 47 hhcurveto
          306 hlineto
          11 60 21 119 rlineto
          105 -8 callsubr
          -718 -5 callgsubr
          523 hlineto
          -18 -105 rlineto
          -249 hlineto
          -94 -70 -42 -78 -14 hvcurveto
          -10 -57 29 -41 46 -22 -82 -46 -51 -78 -17 -97 -32 -178 110 -130 201 2 rrcurveto
          endchar
        </CharString>
        <CharString name="dvH_LA">
          79 290 -212 rmoveto
          12 69 rlineto
          -128 -81 89 131 24 hvcurveto
          114 21 83 96 152 hhcurveto
          94 46 -42 -53 12 hvcurveto
          -36 -12 -23 -26 -13 -28 rrcurveto
          -1 hlineto
          36 -5 -24 36 -56 hhcurveto
          -67 -59 -44 -81 -15 hvcurveto
          -78 -14 41 -56 86 hhcurveto
          5 7 0 1 7 hvcurveto
          10 55 rlineto
          -1 -6 -5 0 -7 hhcurveto
          -46 -22 31 47 9 hvcurveto
          37 7 28 33 38 hhcurveto
          39 17 -34 -49 -9 hvcurveto
          -2 -9 rlineto
          59 hlineto
          2 9 rlineto
          50 9 30 33 39 hhcurveto
          37 17 -31 -40 -7 hvcurveto
          -46 -8 -32 -31 -48 hhcurveto
          -5 -5 0 1 -5 hvcurveto
          -10 -55 rlineto
          -1 7 5 0 7 hhcurveto
          87 59 51 78 14 hvcurveto
          11 67 -29 47 -49 12 rrcurveto
          92 -8 -72 68 -133 hhcurveto
          -43 -40 -5 -10 -36 322 callsubr
          25 7 32 rrcurveto
          47 8 46 18 48 hhcurveto
          310 hlineto
          11 60 21 119 rlineto
          130 -22 callsubr
          -748 -100 callsubr
          528 hlineto
          -18 -105 rlineto
          -255 hlineto
          -93 -70 -42 -76 -14 hvcurveto
          -10 -55 27 -43 47 -23 -82 -47 -51 -78 -17 -97 -31 -173 107 -129 177 4 rrcurveto
          endchar
        </CharString>
        <CharString name="dvH_MA">
          662 327 callgsubr
          334 hlineto
          -35 -195 rlineto
          -85 hlineto
          -94 -84 -42 -82 -39 hvcurveto
          -217 hlineto
          -17 -17 -1 -3 -16 hvcurveto
          -35 12 -20 24 7 37 rrcurveto
          53 8 49 18 49 hhcurveto
          180 hlineto
          188 -295 59 callsubr
          -1321 108 callsubr
          -59 29 -40 41 -22 -72 -36 -50 -64 -14 -82 rrcurveto
          -126 -24 79 187 callsubr
          213 hlineto
          -96 -6 65 -64 108 74 callgsubr
        </CharString>
        <CharString name="dvH_NA">
          646 327 callgsubr
          583 73 callsubr
          -118 -97 -58 -111 -31 hvcurveto
          -210 hlineto
          -17 -17 -1 -3 -16 hvcurveto
          -35 12 -20 24 7 37 rrcurveto
          53 9 48 18 49 hhcurveto
          180 hlineto
          111 -171 24 callgsubr
          -1305 108 callsubr
          -59 29 -40 41 -22 -72 -36 -50 -64 -14 -82 rrcurveto
          -126 -23 78 187 callsubr
          219 hlineto
          -87 10 71 -59 101 -82 callsubr
        </CharString>
        <CharString name="dvH_NNA">
          58 325 20 rmoveto
          -35 -16 29 41 7 hvcurveto
          34 191 rlineto
          3 18 19 1 21 hhcurveto
          20 18 -1 -3 16 hvcurveto
          -33 -191 rlineto
          -39 -6 -24 -31 -39 hhcurveto
          308 510 rmoveto
          0 vlineto
          2 13 1 4 rlineto
          0 vlineto
          18 105 54 callgsubr
          -732 -100 callsubr
          520 hlineto
          -19 -105 rlineto
          -246 hlineto
          -93 -71 -42 -78 -13 hvcurveto
          -10 -57 28 -40 45 -22 -81 -45 -50 -77 -17 -99 -30 -172 98 -125 164 -2 12 72 rcurveline
          -111 4 -73 79 24 132 15 82 31 73 82 34 -30 -169 rcurveline
          -72 -13 34 -56 76 hhcurveto
          80 46 55 73 14 hvcurveto
          29 167 60 -35 5 -70 -15 -87 rlinecurve
          -22 -128 rlineto
          77 hlineto
          23 128 rlineto
          156 27 -54 128 -206 hhcurveto
          -44 -40 -5 -10 -36 hvcurveto
          -31 13 -17 23 6 33 rrcurveto
          47 8 47 18 47 hhcurveto
          301 hlineto
          endchar
        </CharString>
        <CharString name="dvH_R">
          -36 353 -412 217 callgsubr
          88 -206 rlineto
          266 961 21 callgsubr
        </CharString>
        <CharString name="dvH_RA">
          -36 512 549 21 callgsubr
        </CharString>
        <CharString name="dvH_VA">
          29 390 -6 rmoveto
          -47 -32 35 50 10 hvcurveto
          51 9 43 32 46 hhcurveto
          56 -1 19 -39 -4 -39 -3 -15 rcurveline
          -35 -10 -35 -39 -52 hhcurveto
          201 545 rmoveto
          0 vlineto
          20 113 rlineto
          119 -8 callsubr
          -686 -100 callsubr
          474 hlineto
          -19 -105 rlineto
          -200 hlineto
          -93 -71 -42 -78 -13 hvcurveto
          -10 -58 28 -40 46 -21 -77 -46 -56 -76 -17 -99 rrcurveto
          -173 -30 99 -126 164 hhcurveto
          11 72 -110 4 -72 80 24 133 rlinecurve
          114 21 89 89 126 hhcurveto
          93 50 -52 -70 -1 hvcurveto
          31 -14 -31 23 -49 hhcurveto
          -78 -67 -52 -81 -14 hvcurveto
          -77 -13 47 -58 80 hhcurveto
          51 40 25 34 25 hvcurveto
          -20 -112 rlineto
          77 hlineto
          38 219 rlineto
          133 23 -64 111 -172 hhcurveto
          -35 -33 -5 -9 -32 hvcurveto
          -31 12 -17 23 7 33 rrcurveto
          48 8 44 17 47 hhcurveto
          261 hlineto
          endchar
        </CharString>
        <CharString name="dvH_YA">
          268 499 -34 rmoveto
          -79 -36 52 59 5 hvcurveto
          76 5 65 32 16 84 rrcurveto
          100 19 -85 56 -113 hhcurveto
          -38 -36 -5 -10 -34 hvcurveto
          -30 13 -17 23 6 33 rrcurveto
          47 8 45 18 47 hhcurveto
          238 hlineto
          12 74 rlineto
          -1 hlineto
          20 105 rlineto
          178 hlineto
          -89 -504 rlineto
          -101 -18 -62 -81 -97 hhcurveto
          220 -116 rmoveto
          141 802 rlineto
          123 -22 callsubr
          -937 -100 callsubr
          449 hlineto
          -19 -105 rlineto
          -176 hlineto
          -94 -70 -42 -78 -14 hvcurveto
          -11 -58 29 -39 46 -23 -79 -48 -54 -79 -17 -98 rrcurveto
          -175 -32 107 -130 181 hhcurveto
          13 74 -125 3 -79 86 24 134 rlinecurve
          108 21 84 95 123 hhcurveto
          58 55 -21 -60 -11 hvcurveto
          -52 -9 -49 -25 -77 hhcurveto
          -9 hlineto
          -3 -10 -2 -10 -2 -10 rrcurveto
          -107 -19 57 -88 127 hhcurveto
          78 60 36 56 43 hvcurveto
          -24 -136 rlineto
          endchar
        </CharString>
        <CharString name="dvI">
          -38 669 99 callsubr
          -644 107 callsubr
          25 145 10 -27 39 -53 95 -1 rlinecurve
          118 -1 72 70 17 93 rrcurveto
          133 24 -98 46 -101 hhcurveto
          -44 hlineto
          -52 -40 19 52 10 hvcurveto
          60 10 59 13 49 76 callsubr
          endchar
        </CharString>
        <CharString name="dvII">
          141 callsubr
          9 50 rlineto
          1 hlineto
          24 132 rlineto
          146 -22 callsubr
          -149 hlineto
          12 72 rlineto
          73 13 33 285 callgsubr
          -111 hhcurveto
          -130 -62 -91 -109 -19 hvcurveto
          -13 -71 rlineto
          -398 -100 callsubr
          396 hlineto
          -19 -106 rlineto
          -106 hlineto
          -94 -96 -36 -109 -18 hvcurveto
          -18 -102 76 -45 84 -3 rrcurveto
          55 hlineto
          65 56 -22 -74 -12 hvcurveto
          -49 -8 -43 -42 -72 hhcurveto
          -81 -38 47 66 5 hvcurveto
          -94 hlineto
          -45 -256 rlineto
          99 hlineto
          endchar
        </CharString>
        <CharString name="dvII_Anusvara">
          141 callsubr
          14 76 rlineto
          0 vlineto
          19 106 rlineto
          146 -22 callsubr
          -148 hlineto
          13 77 rlineto
          79 14 44 47 67 hhcurveto
          61 28 -43 -50 -7 hvcurveto
          85 hlineto
          103 19 -62 72 -112 hhcurveto
          -138 -73 -96 -111 -19 hvcurveto
          -14 -78 rlineto
          -402 107 callsubr
          575 911 rmoveto
          20 3 -13 16 -20 hhcurveto
          -21 -19 -16 -20 -3 164 callgsubr
        </CharString>
        <CharString name="dvJ">
          -64 705 406 rmoveto
          15 90 rlineto
          -325 -97 callsubr
          265 246 231 callsubr
          endchar
        </CharString>
        <CharString name="dvJA">
          224 919 319 callgsubr
          667 122 callsubr
          -270 -97 callsubr
          168 298 callsubr
        </CharString>
        <CharString name="dvJH">
          -59 743 99 callsubr
          -709 -83 callgsubr
          201 -1 rcurveline
          14 80 rlineto
          -410 hlineto
          5 callsubr
          endchar
        </CharString>
        <CharString name="dvJHA">
          240 275 326 rmoveto
          5 callsubr
          187 338 callgsubr
          46 -326 126 callgsubr
          -902 -83 callgsubr
          169 -1 rcurveline
          -43 -246 rlineto
          endchar
        </CharString>
</ttFont>
